/* XPM */
static char *_648981364484[] = {
/* columns rows colors chars-per-pixel */
"64 64 23 1 ",
"  c #E9E9E9",
". c #EAEAEA",
"X c gray92",
"o c #ECECEC",
"O c gray93",
"+ c #EEEEEE",
"@ c #EFEFEF",
"# c gray94",
"$ c #F1F1F1",
"% c gray95",
"& c #F3F3F3",
"* c #F4F4F4",
"= c gray96",
"- c #F6F6F6",
"; c gray97",
": c #F8F8F8",
"> c #F9F9F9",
", c gray98",
"< c #FBFBFB",
"1 c gray99",
"2 c #FDFDFD",
"3 c #FEFEFE",
"4 c white",
/* pixels */
"44444O#o+%2242<@O@@=33<4>@+@+;4244-O@++;4<>3%#@%o12333$+O$+22134",
"32121O$@o$3443,oOOO*3434,@@#+-41<4-+$@+:4224%+O#X14444#oO#O12244",
"3332,+@+#%22123#$@+*2412>O+@o=4214=o@OO><<34*#@%#33222&@%%$34212",
"4444,$+X.@34441ooXo&1444;OO+X=4444=.ooO>4443=+XOo>4443%.oo#24444",
",<1<;-%#$&,3><,$$$&-:><1;%&&$-1,,1;$%$%:11,:;&%%$-,,1,=#%#*:1<,1",
"#$$#$<><4,%@.$;2322,%+@+:,<<,-%$@%:221>-####,1343-$o@$,34<1%$@@#",
"OOoX+4243<##O@$2212>#O@O=3424;oOoo;4443*@##O,1323%@O$+:2413@O+@#",
"#@+O@41241+@+##4312>@o@o$31<4;X#%X-4,24*O##o,<224#Oo#o;3224#+@+O",
"@++O+42441@+o@$43441XOOO*4424;X##+;4343=@@.o,4424%@o#@>2344OX@@o",
"$$&*=<><;;%%%*=,<,;;&=&#-<,:,-%-$$=:,<,;$&&&;>,1>*%$**;>2>>&%#$*",
"4443<#@+@&,<21>$$@@%1321;%#@+=2422=@%%$:1131*@#%$,<12<%####13<<2",
"44443o$#o%43441ooo@%4344:oO+.*4444=X#+o:4444*OOoO34444$O.@O34444",
"22243o$#O%31431O@@$%4224:O#&O=4,>3*o%#O>4144=@@@o23334&#@%o,1233",
"4444<@OXo%1443>@@oO%3444:++#o=4244*oOO@:3443&OO++<4443%O+o+24114",
"::>:->**%-:1<>*=%$$-;21>;&%$$=,<3,;&#$*=,1<;=%$$*;112:=$#+-,2>:1",
"#@#@@2>13<@OX@$34442+#+X=,343:#oXo;4333-+#O+,421>$@X#$24424+o+++",
"+@@@@4>,11o$@O&32321O@@@*4314-X@@o;3<34*o$@@>4332*+O@O31<<4#@@+O",
"@++O@43421O#++&3443<O+OO=4314-O#Oo-3,23*o#+@:4442&O@$O13424#+@##",
"OooO#33441OoXO=3443,@+oo-3434-Oo.O:4342=O#@#;2343&oO@O,4412#++@@",
"%&**=:;;>:&%%&->>:;;*=*&;>>>>-&&%&;,>>>;=-==-;;:>=&***:,;;:==*&%",
"4432>%@O+*2442;##+@&<332:&#+@-2442=+O+$;432<=#++#:3433=@+#&,2222",
"4443<+@oX$4344>+@OO$4443;@++O=4444=OOo+;4343=@+OO<4424&XO@@<3444",
"22231O#@O#3><4,+#@@$4322;+#%+=2,<3-#%++:3<44=@##+<41,4$++#O13222",
"33443o@oo#4144,ooo@$4244,+O+X=4444=o+XX>4244&oO+O>4444@+X+X34432",
"=:>:;-=%=:*->;;=--*=::-;$--*=;;>:===&*-=;;>:**-=;*-,>-=&&*-;::>>",
"O@++%,4442@XOO&<244>#ooO-3422-+O+@;321,*+Oo#>44<3&++o$<444,&+O++",
"+@+O%14442@O$O%4433>#+@X*4434;O+oo;4441%O#+@>4324%+@X#<4341%O++X",
"@#@+&14121#@*O%4412>@#&X%2314;@%+o-4342&O*$@>3134%#%O#<2,3<%O$$O",
"OOoo%14442+XO $3434<o.+X-2434;O++O;4442=.#oo,4233%++.#2444<#X+@O",
"====--;;;:*=-&-;;=::&*;*;;-;;=*--=-;-;:-&:-*--*;-=-;=-;;::;==--=",
"3444,$ooX&<4441@@Xo*2444-+o+@=3432*O++#-3442&XX@+>444<#Xoo$<4434",
"2244:@+&O*<3<33O+O+=1<<4;Oo#@-4213=+#++-3<<<=@OO+<2,3,$@$o@<4314",
"4112>$O+@%24<42X@%+&42;4:OO@o=4134-O+O+:4<34=++@O24<32*$&O@,4114",
"4344,%OoX#1444<+@+X%4434=++@+-3243=OoO#;4444*OOoO>4441%XXX$<4444",
"---===;:-==--=;:-;;-=*=;==;::;;--=-;--;-=*;:==;;-**---;-=-;--;;-",
"+@+O$,444>#oOo%4244,O.++;1333;#@+O;4342=Xo+$-2434$o+o$14441$X+@o",
"O@++*241<:##%O$4433:@#&+;3312-+@@o-4243*##@#:44<4#O%+#,1<42%O##O",
"O+OO*2433>$+@O$4444>@+#o=1444;Oo+o-4342*+@O@>4424$o+X@,3441$XO+O",
"##+O%,444,%OO+*2333:@o+@=,243:#O@+-222<*O@+#>2143&+OX$<444<%OO+@",
"-::-=;;-&=;:::;;;*%*:,,>-=**=-;:;**=*=-*:<;-:-&;;-:,::;*&=;:;;:>",
"44442.+O+#4134>OO+O*3314:Oo+.=4324=X@OO:4133*OOOX12424%OO%@33344",
"32343+$##$4<24,##@+*23<3:@#%@-4<,3;#%#@:3<43*O@##222,2&@O@O34113",
"44442##+o#4444:+@Oo&2434;@OOO=4444-Ooo@:4443&oO@@,3432%oOoO34334",
"3211>%#+O%1442-@@+@*<333-$+o+=2442=OXo$;333<&++@#-<43,%O#@$<3224",
"*&&*=:;:>>=*&=;>:::;===*=:>>>;&&**;>:::-*==*-;;:>=*&&&;:>::**=*%",
"+OO+$22442@Oo@-3444>#O+o=2444;Oo++:4442=O+O@:3443&@o+@,4432#+@+X",
"@OOO@42433+@O+*2344>+o@o=4314;O#$O-4243&O#OO:4444$@O@+,4424#++@@",
"$@++@42423O#+O&2124:OO$O=4424;O$%o-4344%@%+O:4324#@O#+<4414$@O+$",
"O$+$$13443%+.+$3333:@o@#-<443;+XOO>4432= @@#>334<=+X@O23424@@@OO",
"<1<,-=%$#=;,<<-=&&&=>,>;-*$#$=>12>-&#$=-,1<;-*$$=:,<1-=#&%;-,111",
"3243,#OOO%1344,+OoX&4444;#OOO=4444-O+O@;4342*+OO@,4444$OO+@<4444",
"2>431++$@&31441o&%+*43>3;++#@;42<4-O%@o;3244&oOOO,4124##@@.14222",
"42442OO@X$4343<o@@o&4424;OoOo-4424*.#OX-,:23*@$%+<4444+O++.24444",
"1<21<%#$@&<11>:$++o&4424;$###-11<1*@%$#-444<&+oo$><<11$#%%%<2112",
"$%$*=>>><>**%%&>21>;=&#@::,<>;*%%%-,<<>-+##%;124;*$$&%:<<,<=*%%%",
"@#.O@1334,O+o@$4444:O.+#:1443;@OOo-4444=+$OO;2122&oo@X14424+oO+$",
"@@+O#42342o%$+&3423>##$O$4414;o$#.;4134%O&#+>4244$#+@O,4234@O@@O",
"#@+O@42442o+O+=4124,O.OO=4434;oO+o;4444=.+O@:4442$#+@@<4424+o+@@",
"O@#$&324<<$$#%-<<24,#O@@;<1<,-%#@$-,,,:-##$&-<2,2=%OO$14422%#@++",
"><1<;-%$$;><<<;%%#$=>121;%%&$-<>:,=#%##-2>1<*&*@%-11<>-#$#*;,,>,",
"4444,#OXX*4444;O+XX%1443;oo+o=4434-o+OO:4344%O#XO:4442% .X@<4444",
"2333<@$$O%4344:+#@+*11,2>OO#o=4314-o#++>3<44%O$#@<22,<&@#$$24322",
"4443<o@O@#4133>@ooO=4424>+@$+=42<3=O#++:2,33*+#$.>2433$Oo#O12344",
"33444O#O+@4344:+%@O*43>2:++#O*4434-O@++;4332=+O+O<2422$#X$+21232"
};
