/* XPM */
static char *caec0091bfbe4a6f85bb575958bed8d4v8R6D2hQG8NuC8XB[] = {
/* columns rows colors chars-per-pixel */
"64 64 236 2 ",
"   c #192D04",
".  c #1B3205",
"X  c #1F3B09",
"o  c #1C3407",
"O  c #23350C",
"+  c #243C0C",
"@  c #283D0D",
"#  c #263611",
"$  c #293612",
"%  c #273B10",
"&  c #2B3B13",
"*  c #2E3B19",
"=  c #313E1A",
"-  c #303E17",
";  c #212F0C",
":  c #343F21",
">  c #1C4205",
",  c #1E4A07",
"<  c #1D5607",
"1  c #24430C",
"2  c #244B0D",
"3  c #28460F",
"4  c #23530D",
"5  c #23590D",
"6  c #2C4314",
"7  c #274B11",
"8  c #2B4C14",
"9  c #2F4318",
"0  c #2F4D18",
"q  c #274410",
"w  c #304317",
"e  c #33441B",
"r  c #334C1B",
"t  c #394C1F",
"y  c #324919",
"u  c #2B5314",
"i  c #2B5B14",
"p  c #2E5218",
"a  c #2F5B19",
"s  c #265710",
"d  c #33541B",
"f  c #38531F",
"g  c #335B1C",
"h  c #35591C",
"j  c #1F6A0A",
"k  c #2B6315",
"l  c #2A6515",
"z  c #34631D",
"x  c #336B1D",
"c  c #31781D",
"v  c #3A4521",
"b  c #3B4C23",
"n  c #3D4D2A",
"m  c #374922",
"M  c #3B5423",
"N  c #365C21",
"B  c #3B5B23",
"V  c #3A5524",
"C  c #3B6324",
"Z  c #3B6B26",
"A  c #3D6E29",
"S  c #3B6625",
"D  c #3B7526",
"F  c #414D2B",
"G  c #43532B",
"H  c #435B2B",
"J  c #47562D",
"K  c #4A5432",
"L  c #4B5C33",
"P  c #4D5A39",
"I  c #475634",
"U  c #525D3D",
"Y  c #505934",
"T  c #43632C",
"R  c #436B2C",
"E  c #43732D",
"W  c #456531",
"Q  c #4B6433",
"!  c #4A6C34",
"~  c #4B6936",
"^  c #51643B",
"/  c #526B3A",
"(  c #506737",
")  c #4B7335",
"_  c #4A7736",
"`  c #53733E",
"'  c #527D3E",
"]  c #546442",
"[  c #556D41",
"{  c #5B6C49",
"}  c #596744",
"|  c #567341",
" . c #5A7444",
".. c #557D42",
"X. c #5A7E45",
"o. c #5C7A49",
"O. c #5D734A",
"+. c #616A4C",
"@. c #617B4D",
"#. c #657E51",
"$. c #6B765C",
"%. c #6A7957",
"&. c #727A5E",
"*. c #737B63",
"=. c #797E66",
"-. c #6E7860",
";. c #565E40",
":. c #4E833B",
">. c #51853E",
",. c #5C8449",
"<. c #598546",
"1. c #5B9349",
"2. c #62844E",
"3. c #648453",
"4. c #698455",
"5. c #6C845B",
"6. c #6B8B5A",
"7. c #658B53",
"8. c #71885E",
"9. c #6B995C",
"0. c #699459",
"q. c #738462",
"w. c #758B63",
"e. c #7A846B",
"r. c #7B8C6B",
"t. c #788765",
"y. c #759464",
"u. c #7C946B",
"i. c #779968",
"p. c #779569",
"a. c #79A36B",
"s. c #7FA472",
"d. c #7EAA71",
"f. c #6FA162",
"g. c #67A059",
"h. c #828A74",
"j. c #878F7A",
"k. c #839573",
"l. c #849B74",
"z. c #8A987B",
"x. c #808E6E",
"c. c #8AA47D",
"v. c #86A778",
"b. c #949B88",
"n. c #8E9A82",
"m. c #8EA381",
"M. c #8DA882",
"N. c #92A484",
"B. c #92AC85",
"V. c #95AD89",
"C. c #99A88C",
"Z. c #8DB483",
"A. c #95B48A",
"S. c #99B38E",
"D. c #94B789",
"F. c #9DA792",
"G. c #9DB492",
"H. c #9BBB91",
"J. c #A5AB9B",
"K. c #A2AA96",
"L. c #A1B396",
"P. c #A4B49A",
"I. c #A5BB9B",
"U. c #A7B99C",
"Y. c #ACB4A2",
"T. c #ADBCA3",
"R. c #AFB8A8",
"E. c #B4BCAB",
"W. c #B1B8A8",
"Q. c #B9BEB2",
"!. c #AAAFA2",
"~. c #9BC192",
"^. c #A5C39D",
"/. c #ACC3A3",
"(. c #ACCAA4",
"). c #AFC9A8",
"_. c #B5C4AC",
"`. c #B3CBAC",
"'. c #B4C2AB",
"]. c #BCC4B4",
"[. c #BCCBB4",
"{. c #BECBB8",
"}. c #BBD3B5",
"|. c #BED3B8",
" X c #B2D1AC",
".X c #C3CCBC",
"XX c #C1C6BB",
"oX c #C4D2BD",
"OX c #C2DABD",
"+X c #CACDC4",
"@X c #C6CCC0",
"#X c #C6D4C1",
"$X c #CAD4C4",
"%X c #CBDAC6",
"&X c #CED4C9",
"*X c #CDDBC9",
"=X c #C7DAC1",
"-X c #D1D5CC",
";X c #D2DBCD",
":X c #D6DCD2",
">X c #D9DDD5",
",X c #DCDFD9",
"<X c #D3E0CF",
"1X c #D6E2D2",
"2X c #D9E2D6",
"3X c #DEE3DA",
"4X c #DEE8DC",
"5X c #E1E4DE",
"6X c #E1E9DE",
"7X c #E4E6E2",
"8X c #E6EAE4",
"9X c #E8EBE6",
"0X c #EBEDE9",
"qX c #ECEDEB",
"wX c #EFEFEE",
"eX c #EDEEEC",
"rX c #EDEEEC",
"tX c #F0EFEF",
"yX c #EFF0EE",
"uX c #EFF1ED",
"iX c #F0F0EF",
"pX c #F0F2EE",
"aX c #F0F0EF",
"sX c #F1F1F0",
"dX c #F2F2F1",
"fX c #F3F3F2",
"gX c #F3F3F3",
"hX c #F2F2F2",
"jX c #F1F2F1",
"kX c #F4F4F3",
"lX c #F5F5F4",
"zX c #F6F6F6",
"xX c #F4F4F3",
"cX c #F8F8F7",
"vX c #F9F9F9",
"bX c #F7F8F6",
/* pixels */
"vXwXcXwXzXiXzXsXsXzXiXcXtXcXqXvXtXbXtXbXtXkXsXxXxXiXxXtXbXwXvXqXvXwXzXwXxXwXxXsXxXkXaXvXtXbXqXvXtXvXtXbXiXzXsXxXxXsXbXtXcXwXcX0X",
"wXzXwXzXiXzXsXxXxXsXxXiXzXiXzXiXbXtXlXtXxXxXxXxXxXxX0XxXtXzXyXzXqXzXwXzX8XyXsXxXkXaXkXaXbXtXbXtXxXtXbXtXzXsXxXxXxXxXsXxXiXzXwXvX",
"cXsXzXsXzXsXzXsXxXxXiXxXsXzXsXzXaXbXaXkXtXxXxXsXiXsX8XiXxXsXzXqXwXsXqXiX3X8XzXsXxXkXxXkXxXlXtXkXdXxXtXxXsXxXsXxXxXsXxXxXzXsXzXwX",
"xXsXxXsXsXzXsXsXxXxXxXxXsXxXxXsXxXkXaXaXtXiXxXxX9XiX5XiXqXsXsXqXqXsX8XyX2X9XxXxXaXxXxXkXxXaXxXxXxXxXxXxXxXxXxXsXxXsXxXxXxXsXxXsX",
"iXzXsXxXsXzXsXzXlXsXxXsXzXsXzXsXkXaXaX8XpX5XfXfX6XiX2XsX8XxXqX8X8XxX3X8X|.8XxXxXxXxXxXaXaXaXkXaXxXdXxXsXzXsXxXxXsXxXsXzXsXzXsXzX",
"cXiXzXsXzXsXzXsXsXlXsXzXtXzXwXzXpXpXaX6XeX5XeXfX5XqX1XqX8XsXqX7X9X8X3X;X^.8XxXpXaXxXtXkXtXkXtXpXtXxXqXzXiXzXsXlXxXsXzXiXzXtXzXwX",
"qXzXtXzXwXzXsXxXlXsXzXtXzXwXsXwXcX8XkX9X6X5X6XpX:X9X<XxX2XbX2XqX5X9X;X|.H.8XqXyXaXtXpXpXqX0XaXtXvX9XqXqXzXsXlXxXxXxXsXzXtXzXwXvX",
"vXwXzXsXzXsXxXsXsXzXsXzXtXzX9XiXqXqX5XpX<X6X5X9X;X5X%XqX1X0X1X4X9X;X*XH.S.2X8XxX0XtX8XaX6XpX5XpXtX7X5XiXyXzXsXsXxXsXzXiXzXtXzXqX",
"wXbXiXzXiXxXsXxXxXyXzXiXzXtXqX5XpXqX;X6X2X*X5XoXoX<XoXfX*X6X-X6X,X;X[.D.S.;X8XsX9X9X8X9X8X5X9XtXxX;X8X0XzXsXxXxXxXxXsXzXiXzXwXvX",
"zXsXxXsXzXxXxXxXsXqXyXzXsXzX5X3X6XpX;X;X5XOX6X_.XX.XoXtXOX;X-X6X1X.X^.c.G.[.iXtX3X9X>X9X2X>X5XaX3X=X6XsXyXxXxXxXxXsXzXsXzXsXzXwX",
"sXxXxXxXxXxXxXsXsX8X8XsXxXxX7X:X2X6X5XoX6X X<XXXY./.oX6XOXoX$X9X%X].^.p.V.oXbX7X>XqX;X8X$X5X5X9XOX%X7XiXqXxXxXpXxXsXsXsXxXsXsXxX",
"iXzXsXxXiXxXxXsXyXqX5X9XxXsX3X&X6X<X6X'.5X}.OXXXc.H.%X6X XXX:XeXoXU.(.8.l.oXxX-X,XqX%X3X].6X:X;X.X&X9XqXqXiXiXxXxXiXiXzXsXzXsXzX",
"cXiXzXyXzXsXzXsXuXyX:X3XwXzX:X@X6XOX5XI.:X`.*XL.z.a.oX2X XS.-X6X Xv.OXx.N.}.tX+X7X9X'.oXT.5X[.*X_.:X5XiX8XuXuXxXyX8XsXiXzXtXzXwX",
"wXzXwXzXyXzXsXxXyX9X4X*X7XwX>XE.pX}.:XL.'.}.OXT.r.l..X6X~.B.XX9X}.1.*Xl.N.}.,X-XqX5XI.I.{.{.U.}.S.:X3X0X6X8XxXiX8X8XsXzXiXbXtXvX",
"vXwXzXtXbXiXxXiXiX8X3X;X&XwX$XP.5X(.].G.c.OX.XL.7.i.T.2X~.A.E.,X}.0.6Xw.C./.].,XtX:XN./..XI.I.`.B.7X:XyX;XxXsX8X5X9XzXtXzXwXzXwX",
"wXzXsXzXsXxXxXqXuX8X3X%X%X-X#XC.6X^.).G.c.(.(.c.X.4.T.;Xc.P.Y.5X^.g.U.! t.V.E.qXtX.X6.[.oX~.).A.K.:X3X3X3XsX8X2X3XsXsXzXtXzXwXbX",
"zXsXzXiXxXsXxXiX3X0X;X}.*X{.].m.&X XT.G.u.S.^.w.) 4.].XX0.v..XoXc.<.4.R x.k.oXpX9XXX:.}.v. Xc.g.E.}.1X%X5XpXoX>X,XpXpXqXbXdXkXdX",
"xXsXxXsXwXqXxXxX>X3X1X(.#X$XP.l.@X XA.H.7.l. Xw.z 2.oXY.:.i.'.G.v.0.E ( x.z.oX9X8X/.:.Z.l..Xv.0.%XU.=X;X6X<X,XoX5XpX0XqXkXfXfXfX",
"sXzXsXiX9X7XqXxX3X&X6X/./.<XT.6.@X(.H.T.u.#./.0.! E oXW.' l./.v.g.v.R x.c.k..X3X2XI.1.x.v. X7.l.oXS.%X,X;X(.,XXX5XpX<XpXfXfXtXzX",
"cXiXzXtX9X3X5XuX0X{.4X XD.%X{.7.XXH.^.A.A.~ u.,.! ` ].'.) k.L.<.l.c.E x.c.2..X1X<Xc.1.v.c.c.2.c.S.v.,X:XH..XoXoX0X5X2XpXzXtXlXtX",
"qXzXtXbX8X2X2X5XwX[.&X/.H.}.).r.R.d. Xs.D.C $.O.) c.P.;X` y.B.E l.9.k x.k.@.Y.oX.X@...v.c.l.x.L.u.S.6X(.I.oXP.oXqX*X6XkXtXlXtXzX",
"vXtXzXiXuX<X,X:X3X{.{.^.D.H.R.u.t.9.`.i.A.X.{ %.2.T.L..X` u.v.Z v.9.i ( 4.4.L.oXI.R :.`.l.>.>.^.v.oX`.v.Y.XXV.5X4X-XpXeXfX9XlXtX",
"wXbXwXxXtX%X:X,X&XR.[.G.Z.f.s.3.u.<.OXp.H.s.[ / ) V.U.K.| #.>.Z x.2.k ` E x.L. Xl.Z 7.OXv.:._ x.L.`.D.G.W.F.L.oX%X&X9XqX9XtXtXzX",
"zXiXzXwXqX;XoX5X;X!./._.s.s.3.5.6.,._.9.T.M.V B E 9..XN.[ / ) x 9.C x 2.Z x.c.c.E z x.0Xv.x @.x.U.D.~.S.F.L.^.OXoX*X9X5XeX0XzXtX",
"sXsXxXiX3X3X_.:X2XT.c.I.i.a.<.#.! i.u.7.V.V.h T c 2..Xp./ @.z E 1.h Z @.` x.4.l.Z z l.pXv.k 2.2.c.9.H.K.k.L./.OXXX2X5X0X9XpXfXfX",
"sXzXsXxX5X&X|.#X9XE.C.v.d.a.6.S a 9.~ <.y.V.g i j @.B.4.` 0.a E <.f C 2.( 2. .4.k T c.8X1.x X.) f.9.v.U.2.L.S.'._.6X,XqX5XfXqXzX",
"sXwXzXsX8X#X].^.8X_.Y.n.M.7.,._ g 9._ S ..c.g s 5 ( 0.l.7.y.h E Z u f x.( @.( ( x  .G.OXE E o.( l.x.l.L.#.S.v.c.%X>X5X6X5X0XtXtX",
"9XxXtXbXrX*XP.S.1X].R.s.p._ A 3.B _ <.[ R w.B a < ( 6.l.' >.g x h u y x.) / ( J E  .c.v.:.E x.` y.7.L.v.x.l.l.K.5X&XeX5X5X9X9XzX",
"cX8XbXiXxX1X_.c. X#XT.s...A X.<.~ S A / [ [ 0 i < H u.R x E 0 R 8 8 w 4.) ( H h E ( 8.v.) ` 2.` 4.7.I.l.x.v.l.XX-X-XpX&X6X5XzXqX",
"qX9XqXzXsX2X_.k.p.].A.B.3.C R R 8 N g ~ ^ B f s 2 t t.h k E 0 T 3 2 w o.T B 8 h ` ` ) l.Z ( T 2.<.6.c.x.<.A.c..XXX5XoX-X,X5XtXzX",
"cX8X9XsXzX8X`.N._ i.V.D.m./ s S 8 g N O. .d d s > @ #.z k _ g ( t 2 2 u Q J 2 h /  .Z 7.C ( R x.( 4.x.2._ A.x..XXXOX_.>X,X5XtXtX",
"sXyX3XsXsXzX|.D.6.' u.d.R.4.i < B _ k [ e.V 1 < > @ ( i k Z g T f 3 3 d T B 4 B ( ( D ( C T D ( T 4.%.) @.N.x..X'._.-X>X>X0XtXfX",
"hXwX2X9X0XlX4XD.3.A  .,.S.| u , f 0.z T z.Q 3 < + @ t 5 5 k 4 T J 2 y t T h s h C C A g T h E H ( ` X.D l.k.8.L.G.'.-X-X,X0XpXkX",
"vXwX4X>X0X8XwX`.7.C | 3.i.o.N 4 p 0.g / e.( p 5 7 3 y k l z 3 C J 3 h f Z d r a T x ..u R N ) H ( R D D 8.8.8.x.c.oX-X-X7X9XkXeX",
"rXvX4X;X8X3X5X%Xf.Q 0 #.6.z.V i 1 <.d T } H B s 0 @ w h k C w x J t h r Z p y h T S ` i R z R J ( E x T } x.8.y.L.oX-X-X5XtXtXkX",
"vXwXqX-X>X8X+X;Xa...7 ~ 3.V.W a 1 E p 7 H W V i 0 1 y H s M 6 z b f z y l u w g H C H a R C z t L x x W ( c.8.c.K.U.oX7X5XtXkX9X",
"rXvXrX:X*X3X:XR.s.0.7 V ..3.O.a 1 s g 2 V ! f u 0 3 t B 5 f 1 g F f i 6 k y 6 x H B a H T R h r T j R / L l.2.K.z.Y.&X9X7XzX9XzX",
"gXhXlX:X>X@X3XJ.V.s.8 , B S n d 8 4 ` 0 f E r 2 p 0 e r 5 d q i G h a @ s d 6 z H h s J H h d H R j / L ( 0. .x.x.W.>X,XkXeX9XtX",
"hXlXhX9X%X#X#XY.q.M.V > 7 R V u d 2 2.f d S F 7 d f w y 4 f 3 i f p f 6 f t f z G z p Y h h p Q T k Q f C <.` 2.k.E.>X9XzX5XeXkX",
"wXlXwXlX$X%XR.H.e.s.N > N W p 7 y 3 R d r ! B 6 O t w 8 4 d & u u 2 h w u y u u t h r Y u f u W C i T 8 Z Q ( 4.x.XX-XtXtX5XtXkX",
"vXwXlXwX6X[.XXH.5.P.z > N S p q 8 1 s 8 d f h r   e v 3 4 d w 2 2 2 f y 7 + d 0 b V t Q 8 b u T a h H i E ( ` 8.z.XX,XtX7X7XkXtX",
"qXvXwXwXqX@X{.P...!.,., 7 N p 7 1 + , 1 0 3 d M ; y t 6 2 u M 3 u 3 r 6 q 1 d 8 M m F H 6 d h T s h y h ) !  .&.b.'.5XqX,XkXdXcX",
"vXwXvX9XwX,XP._.3.e.w.u , a a u > + 2 > y 1 u d % t y w , 4 d q 8 2 y r 8 6 p r f t F M q 1 f B h ( 3 R ` T } j.C.-X9X>XqXtXzXqX",
"qXvXwXlX4XhXR.G.n.A q.n X 7 u p , + 2 , b @ 8 u q e e e 2 , d q 0 3 h G 0 8 u h B b G 2 8 1 r M L Q 3 / T T Y x.c.,X>X,XtXzXdXzX",
"zXsXhXhX9X8X,XM.r.| [ Q O 2 4 d s > q u f 1 6 8 7 e e e 9 , p % y u H y 0 3 u d G v n 2 8 3 f J ^ H 7 ^ H J &.%.F.>X+X9XzXtXzXtX",
"hXzXhXzXsX,XwXJ.O.o.[ n 1 + 3 u g 1 * y y 1 6 8 2 6 e e 9 1 p X w 0 H @ 1 @ p d G e r , y 7 t G P V y H Y +.x.x.K.+X-XlXtXzXtXlX",
"hXhXhXhXhX8X4X&X@.] w.0 + + 1 p C 1 & y 6 X 6 y 2 & e e e 1 p O y p H @ + + d 8 H 6 7 2 0 % m F F q M B J =.&.x.Q.XX0XlXtXlXfXzX",
"zXwXzXhXgXsX>X8Xn.L w.y . 1 + 8 a 7 O e 6 O 6 d 4 O = e 6 # V O t G f + + q 0 y d 1 3 6 8 O n F 9 1 V B Y +.&.z..X-XlXtXlXtXzXtX",
"wXzXwXzXwXlXqX>XQ.n 3.B % X 1 8 i 9 O = q O & a < X = = = # y O e G f + % 0 r f u 1 6 6 + O M m & 1 0 H Y Y $.K.&X7XfXzXtXzXtXzX",
"vXwXvXwXlXhXlX3X@Xn ] [ % X q 7 i 0 + = 6 X & f < > * * = & 9 + w G r O & f b t 2 6 6 w + 6 b t + 0 0 K Y ;.&.XXQ.tXkXtXzXtXzXtX",
"wXzXwXzXwXlXgX9X&X-.e -.q . % 1 u e 9 & 9 O O e 4 2 * & v & 8 # w t b O 6 G e d 1 9 w & O t t e + r d K F ;.b.XXXXzXtXzXtXzXtXzX",
"zXwXzXhXlXhXlXwX&XR.% q.~ . o X p e e & * +   e p 1 9 & v & e # & t M o w H 6 8 1 8 w * O v y 6 y r b J K +.W.J.7XkXkXfXzXtXzXtX",
"hXhXhXlXhXhXgXlX,X+Xn ] #.% .   8 m e % * %   * r , 9 & v & = $ @ t v . e F - u % 7 9 & & e e + t r b v U =.J.J.lXfXfXfXfXlXfXfX",
"hXlXhXlXhXgXgXhXrX@Xn.9 r.n .   & m 9 & * ;   # m 2 6 e v * * $ $ t F . y F & 8 # 0 * & w * w + b y F v } h.b.>XlXfXfXlXfXfXfXzX",
"zXhXzXwXlXhXlXlXgX-XQ.n { [     % e * # * $ ; # m 2 9 9 v * * & $ e = O e : & 8 & y - & = * 6 & b y e F U h.W.lXdXdXxXfXxXtXzXtX",
"qXzXwXzXwXzXwXlXgX9X{.$.m $.O o $ 6 & # * * % # m 7 6 8 v e & * @ F = $ 9 = 6 & & 6 = 6 e * + e w y = K U h.,XlXfXlXtXzXdXzXtXzX",
"vXwXlXhXlXhXlXhXgXgX&Xb.% { 9 o % 9 & ; # * % # m 7 q 7 : * ; * & F = $ F v e & * 6 * e * & + e 6 - = F F J.xXxXlXdXxXdXzXtXzXtX",
"wXvXwXlXhXlXhXgXgXgXwXJ.n V n   # 9 * O # n 9 # : 9 % 7 : : ; : & F e # G m y # m % 9 v $ & # : n * v : P &XzXxXdXlXdXxXtXzXtXvX",
"lXhXlXpXlXhXlXhXgXgXhX@X{ X I ; ; % * $.m P n # n n # n e : ; * = &.v # P I b & ;.$ = n # P G P ^ * ;.: *.tXtXxXgXdXlXtXxXdXxXtX",
"hXgXhXlXhXhXhXgXgXgXgX3Xh.n ].$.: * * F.{ m ] # I F.n n.n # ; : = K.} # +.$.K K %.$ F -.# n.*.-.U F *.U W.hXxXxXdXlXgXgXdXxXdXxX",
"hXgXhXlXgXgXhXgXgXgXgXwX3XF.,X!.-.U ;.b.Q.F b.;.: @Xn.Q.;.* ;.P * Q.=.P ] e.=.{ ;.* $.!.h.+Xh.b.b.F.=.Q.eXxXxXxXxXxXxXxXgXxXdXxX",
"lXhXlXpXlXgXgXhXgXgXgXzXsX8X7X7XJ.h.*.!.7X-.!.J.n Q.!.+Xh.=.,XXXI XXe.I U F.J.-.b.+.J.!.Q.>Xh.+X9X,X+XzXsXxXtXxXxXdXxXtXxXdXxXtX",
"qXvXwXlXyXgXsXgXgXgXgXwXzXwXgXwXrX,X,X+XtXQ.+X7Xn.Q.+X-XF.R.hX,Xn.>Xn.-.-.+X&X>XqXh.5X+X7X7X9XrXzXtXvXtXxXsXxXxXdXxXdXbXtXxXtXvX",
"vXyXvXwXvXsXgXgXgXgXwXvXwXzXwXzXtXzXhXgXtXrX,XrXrXrXrX7X>X-XgX7XtX7XR.,X,X7X9XeXtX>XtXlXtXvXtXvXtXzXtXzXtXvXtXxXxXtXxXtXvXtXvXeX"
};
