/* XPM */
static char *_df553c263e5449e81845ae01edb9138hRGM65nla8kUVf00[] = {
/* columns rows colors chars-per-pixel */
"64 64 256 2 ",
"   c #047915",
".  c #197B1C",
"X  c #13641C",
"o  c #1B582F",
"O  c #167828",
"+  c #067836",
"@  c #197838",
"#  c #0E702D",
"$  c #25792B",
"%  c #256D3A",
"&  c #267837",
"*  c #26622C",
"=  c #196F1F",
"-  c #147749",
";  c #276C43",
":  c #39764A",
">  c #2A7948",
",  c #527C51",
"<  c #B43B1A",
"1  c #B54716",
"2  c #B04912",
"3  c #B0621B",
"4  c #9C5233",
"5  c #B3502D",
"6  c #B76C2F",
"7  c #8B7521",
"8  c #D75A05",
"9  c #D95719",
"0  c #CD5113",
"q  c #E85808",
"w  c #F6570A",
"e  c #E65819",
"r  c #F25916",
"t  c #EC4D0F",
"y  c #DB7709",
"u  c #D76415",
"i  c #DD7818",
"p  c #D36A0C",
"a  c #ED6302",
"s  c #EA680A",
"d  c #F3670B",
"f  c #E6740C",
"g  c #F6770B",
"h  c #EB6816",
"j  c #F56815",
"k  c #E87816",
"l  c #F77517",
"z  c #C95928",
"x  c #D75526",
"c  c #C65431",
"v  c #E65921",
"b  c #E7562A",
"n  c #C66739",
"m  c #D1722F",
"M  c #E76428",
"N  c #E97626",
"B  c #F87928",
"V  c #F66C29",
"C  c #B77348",
"Z  c #B57971",
"A  c #CB724E",
"S  c #CD7E62",
"D  c #DC7964",
"F  c #E0745A",
"G  c #2E8E1B",
"H  c #0B8629",
"J  c #168A29",
"K  c #1A962B",
"L  c #098A38",
"P  c #178838",
"I  c #199537",
"U  c #0B922C",
"Y  c #258829",
"T  c #2B962C",
"R  c #339429",
"E  c #268837",
"W  c #338739",
"Q  c #289837",
"!  c #359B35",
"~  c #379739",
"^  c #358C2B",
"/  c #1EA339",
"(  c #1DA02C",
")  c #27A53B",
"_  c #36A53B",
"`  c #2DAE30",
"'  c #198A1E",
"]  c #459938",
"[  c #6A902B",
"{  c #49A438",
"}  c #44B436",
"|  c #458E18",
" . c #068C45",
".. c #178746",
"X. c #199845",
"o. c #1B9754",
"O. c #168553",
"+. c #268649",
"@. c #269844",
"#. c #359944",
"$. c #298555",
"%. c #348A55",
"&. c #299756",
"*. c #389853",
"=. c #398948",
"-. c #1BA646",
";. c #1EA651",
":. c #28A746",
">. c #38A747",
",. c #38B34C",
"<. c #2AAA55",
"1. c #37A954",
"2. c #37B556",
"3. c #2AB351",
"4. c #33B263",
"5. c #3F9070",
"6. c #479B47",
"7. c #569844",
"8. c #48965A",
"9. c #498954",
"0. c #6E974F",
"q. c #46A848",
"w. c #47A956",
"e. c #44BA5B",
"r. c #51B151",
"t. c #58966A",
"y. c #4E8E68",
"u. c #679474",
"i. c #53AE6E",
"p. c #68B677",
"a. c #69AD71",
"s. c #78C871",
"d. c #42C458",
"f. c #808415",
"g. c #E6840C",
"h. c #F78808",
"j. c #EA8817",
"k. c #F28B14",
"l. c #F48819",
"z. c #EB9219",
"x. c #F5921A",
"c. c #FF920C",
"v. c #DC8728",
"b. c #DC8738",
"n. c #CE843A",
"m. c #ED8C24",
"M. c #EB8426",
"N. c #F68925",
"B. c #EB9225",
"V. c #F89326",
"C. c #FC8638",
"Z. c #F09237",
"A. c #EC982E",
"S. c #BB9359",
"D. c #A29F55",
"F. c #CE854C",
"G. c #D39570",
"H. c #F08E70",
"J. c #D4AC6D",
"K. c #F4A464",
"L. c #B3C977",
"P. c #69BA83",
"I. c #72B28B",
"U. c #76AF96",
"Y. c #59C78C",
"T. c #77D38B",
"R. c #76CDA9",
"E. c #89B58E",
"W. c #969F9C",
"Q. c #EF9682",
"!. c #CEAB83",
"~. c #E8A583",
"^. c #F0B594",
"/. c #DCB0A7",
"(. c #8AC898",
"). c #8CD090",
"_. c #A2DB9E",
"`. c #8CE599",
"'. c #9AD7A5",
"]. c #9ADBBB",
"[. c #93CAAE",
"{. c #A6D5A7",
"}. c #ABD1B0",
"|. c #91EEAB",
" X c #A8FAB8",
".X c #ADF2B3",
"XX c #F5C792",
"oX c #FFD2AE",
"OX c #FEC8B5",
"+X c #FDD8B7",
"@X c #FCC4A9",
"#X c #CBF5B2",
"$X c #FFE7BA",
"%X c #C6DFB8",
"&X c #B7DCC6",
"*X c #A9DFCF",
"=X c #B9F8C8",
"-X c #BDFAD5",
";X c #B2E8C8",
":X c #9CEEC8",
">X c #FFD9C5",
",X c #FBD4CF",
"<X c #C6FDC9",
"1X c #C9FCD8",
"2X c #D4FFDC",
"3X c #DAFADB",
"4X c #D3F1CF",
"5X c #FFE9CC",
"6X c #FBFCCD",
"7X c #FFEAD8",
"8X c #E5FDDA",
"9X c #FEF3DC",
"0X c #FFFBDD",
"qX c #FDF7D6",
"wX c #E3FFC2",
"eX c #CCFDE7",
"rX c #D5FEE4",
"tX c #DAFDE7",
"yX c #DBFFF3",
"uX c #D3F3EA",
"iX c #FDEAE7",
"pX c #E2FFE3",
"aX c #ECFEE5",
"sX c #E4FFEC",
"dX c #EBFEEC",
"fX c #EBF4EA",
"gX c #FFF5E5",
"hX c #FEFBE3",
"jX c #FEF5EB",
"kX c #F4FDEC",
"lX c #FEFDED",
"zX c #F3F9E6",
"xX c #F9EDF7",
"cX c #E3FEF3",
"vX c #ECFEF4",
"bX c #E5FFFB",
"nX c #EDFEFC",
"mX c #ECF6F6",
"MX c #FEF5F4",
"NX c #F3FEF4",
"BX c #FDFEF4",
"VX c #F6F5FB",
"CX c #FEF5FD",
"ZX c #F4FFFD",
"AX c #FFF9FF",
"SX c #FFFAFE",
"DX c #F9FFFF",
"FX c #FAFFFE",
"GX c #FFFDFF",
"HX c white",
"JX c #FFFEFF",
"KX c #FDFFFE",
"LX c #FEFEFE",
"PX c #F5F7F5",
"IX c #E7EBE9",
"UX c #CECCCF",
/* pixels */
"GXGXGXSXSXSXKXZXZXnXbXnXnXZXGXGXAXFXZXZXVXAXMXCXCXKXZXnXbXnXFXGXNXNXGXAXAXGXkXaXaXlXGXAXCXAXKXNXKXGXGXGXGXGXGXGXGXGXGXGXGXGXGXGX",
"GXGXGXKXBXKXKXKXZXZXZXZXFXFXSXBXFXFXZXZXFXGXSXSXMXZXnXnXnXZXFXAXBXKXGXAXAXGXNXhXzXlXGXAXAXAXKXBXKXKXGXGXGXGXGXGXGXGXGXGXGXGXGXGX",
"GXGXGXKXKXKXKXGXGXGXAXCXCXFXSXBXAXGXZXZXZXvXfXZXNXZXnXnXZXGXMXSXBXBXGXGXGXGXBXlXlXBXGXGXGXGXKXKXKXGXGXGXGXGXGXGXGXGXGXGXGXGXGXGX",
"FXFXFXBXBXKXKXGXAXAXAXAXAXCXiXiXjXSXNXNXnX&X&XnXnXnXNXNXGXGXAXSXBXKXGXZXFXGXBXBXBXKXGXFXFXFXKXBXKXGXGXGXGXGXGXGXGXGXGXGXGXGXGXGX",
"FXFXFXZXZXKXKXGXCXCXCXAXGXFXNXNXBXBXkXNX*X, ; y.1XbXZXNXKXMXAXSXBXKXGXZXFXGXAXMXMXAXGXFXZXFXKXKXKXKXGXGXGXGXGXGXGXGXGXGXGXGXGXGX",
"GXGXFXZXNXZXZXGXCXCXCXAXZX3X<X1XkXhXaXdX'.> - +.I.rXNXKXSXCXGXSXKXGXFXFXFXGXAXAXAXAXGXFXFXGXBXBXKXGXGXGXGXGXGXGXGXGXGXGXGXGXGXGX",
"GXGXFXZXZXZXZXFXCXVXFXZX-XP.> - }.8XpX2XP.@ O...%.-XvXBXBXMXFXNXKXKXGXGXGXGXAXGXGXGXGXGXGXGXKXBXKXGXGXGXGXGXGXGXGXGXGXGXGXGXGXGX",
"AXAXGXZXZXnXZXFXGXVXZXyX[.$.+ X.& _.3XrXi.P 4.X.@ =XdXkXBXdXbXbXZXZXFXGXGXGXGXGXGXGXGXGXFXFXZXZXKXKXGXGXGXGXGXGXGXGXGXGXGXGXGXGX",
"CXAXKXKXZXZXFXGXGXGXZXsX(...L ;.E W  X XQ X.<.4.O (.aXaXPX*X:XeXZXZXNXfXZXmXFXFXZXvXZXvXFXFXNXZXKXZXGXGXKXKXSXKXGXGXGXGXGXGXGXGX",
"AXAXGXKXZXKXZXBXMXGXfXvX;X&.X.-.,.Y #.Q @.1.@.<.P a.tXaX;X; # :XsXmXZXnX4XIXZXmXFXZXuXE.E.sXvXFXKXGXGXGXGXKXKXKXGXGXGXGXGXGXGXGX",
"AXGXGXKXKXBXKXSXCXSXjXPXsXp.=.>.Q e.,.K J H K 1.#.t.2X=Xt.%.O.5.nXFXbXt.; t.sXkXvXtX9.; % I.NXPXKXKXGXZXPXKXKXKXGXGXGXGXGXGXGXGX",
"GXGXGXKXKXKXSXSXAXMXkX3X8X_.& w.,.,.K K ) ,.q.. W #.=XT.# @ o.5.uXZXeX% +.% (.aXdX{.X W @ : aXKXKXKXGXGXGXGXKXSXGXGXGXGXGXGXGXGX",
"FXGXGXGXKXBXGXKXSXmXvXsXpX.X$ ] _ _ K _ >._ r.~ ~ W E E &...+ t.DXFX(...+.O 9.8X8X9.Q :.@.%.3XGXBXZXSXPXKXGXGXZXGXGXGXGXGXGXGXGX",
"ZXFXFXGXKXKXGXKXZXnXtX1X Xi.W ! q.q.' ) r.! ! ] Y w.@.I P P H T.ZXmX(.@ @.Q $ a.).W ,.) @.8.cXFXGXGXSXKXKXKXKXKXGXGXGXGXGXGXGXGX",
"ZXFXFXGXGXKXFXZXbX].P.5.I H I _ { R R _ ! R r.r.w.T I ;.-.X.P |.nXcX=XX >.,.w.E Q >._ ,.>.=.sXkXAXxXPXGXGXGXGXGXGXGXGXGXGXGXGXGX",
"FXZXFXGXGXFXZXvX].$.@ P I 3./ ) T . } >.H L.3X#Xq.,.3.-.:.<.@ =XbXnX=XW q._ J I I >.>._ #.$ I.1X}.}.&XpXZXNXNXGXGXGXGXGXGXKXKXKX",
"KXKXGXGXGXGXnXyX8.E J ^ r.T ) ) _ :.2.P 7.8XwX{.Y I 3.) #.>.@.i.1XsX3X6.~ T J ) I   #.r.~ T   H O = & t.3XNXFXFXAXCXGXAXGXKXNXBX",
"BXBXGXGXGXFXZXyX8.H ! ] ] ! :.I Q ,.4.L u.vXlX%Xp.T.) Q q.W P L +..X2X7.] T _ d.,.e.Y #.q.q._ K T Q O & '.sXZXAXAXAXAXAXGXZXNXNX",
"BXBXGXGXAXFXnXyXp.O q._ ! >.) ) w.Y X. .Y.yXNXzXsX2Xi.P q.~ O H + &.i.^ { Y Q J X.<.H Q _ T ! >.) q.Y O (.pXvXGXAXAXAXAXGXBXKXNX",
"BXBXGXAXAXGXZXbX XE Q ) _ ,.I e.<X6.X.L R.yXNXKXtX1XR.o.@.#.H P  .# I ^ ] ^ T.p.&.&.e.K T ! =.#.) e.#.% (.cXnXGXGXAXAXGXGXKXKXBX",
"BXBXGXAXAXGXZXcXtXw.Q :.2.-.O |.wXa.# - [.nXGXUXI.y.Y.;.U :.U L O.O.6.] ] 7.%XtX-X8.Y e._ J E w.>.,.1.@ ).vXZXZXGXAXAXAXGXGXKXNX",
"BXBXAXAXGXGXFXnXsXP.P 3.2.L P <X<X).@ P.yXZXGXW.o - o.4.-.I 3.L ..&.~ R { [ E.sXnX].X ~ . T.(.+ #.>.w.& (.cXvXZXGXGXGXGXGXGXKXBX",
"ZXKXGXAXAXGXFXZXdX(...<.3. .t.2X|.`.i. XcXdXNX}.$.o.L ;.<.@.,.@.L / / ` } p.E.vXZXdX, & O  XeXt.P @.w.=.a.sXcXNXGXGXGXGXGXKXKXBX",
"ZXNXGXAXAXGXGXZXPX}.# <.&...(.<X@ + ..$.a.1XtXeX*. .L P 1.w.J >./ U ` } { #X0X9X9XlX}.* o [.yX;X& #.8.=.: sXsXZXFXGXGXGXGXGXKXKX",
"ZXZXGXGXGXGXGXBXBX4X; > &.- 4X}.> ......+.E ).=X>.Q I Q E #.T.' R G | [ D.J.$X6XhXhXaXE.y.&XZXbXE.$ & : : 1XvXZXFXGXGXGXGXGXGXGX",
"nXZXGXGXGXGXGXKXBXNXI.; ; u.aXdXI.- &.4.2.:.T ! ) J ! >.6.9.s.s.[ f.7 7 7 3 n A H.5X0XkXsXuXZXZXtXa.% o y.sXNXNXFXGXGXGXGXGXKXKX",
"ZXZXGXGXGXGXAXKXMXKX4Xu.t.<XdX3XrXP.P :.U T Y R ' _ e.T ~ ] 7.D.3 8 8 u v b t x m A oX0XBXFXIXZXcX<XI.u.}.xXZXZXFXGXGXGXGXGXKXKX",
"ZXZXFXGXKXKXKXKXSXIXvXVXcXcX2XyXrX-X<.-.) Q { ^ ] >._ ! ] 0.7 3 a w q t r r r v M z 6 ^.5XlXFXnXcXvXdXuXsXPXNXGXFXGXGXGXGXKXKXKX",
"GXGXFXFXGXKXKXKXKXNXZXfXsXsX=X|.|.T.I H ) ) q.7.).r.~ ).L.7 z e r q q q q u i N N C.z n XX7XBXNXNXZXZXZXZXZXFXZXGXGXGXGXGXGXKXKX",
"GXGXGXFXKXBXBXKXNXNXBXNXNXu.> P U / ) H d.>.W r.3X_.).6XXX3 r t t q s y y j.B.Z.B N.B 9 F.oX9XKXGXPXSXGXFXCXAXVXGXGXGXGXGXGXKXKX",
"AXGXGXFXKXKXZXKXnXZXZXfX4X: O.X.w.] r.^ T w.+.P.3XaX6X$XF.u h t e u f f g.g.v.v.m.V.l V.u F.9XSXAXVXAXAXGXFXGXGXGXGXGXGXKXKXKXKX",
"AXAXGXFXKXBXBXZXnXvXKXNXNX, > o.q.{ q.~ J e.*.@ |.aX0X^.6 N j j h M f h.z.z.B.z.B.l.x.V.p 3 ~.gXSXCXGXxXGXAXPXGXGXGXGXGXGXKXKXKX",
"GXGXGXGXKXKXKXKXZXZXFXFXmX&XI.: $ #.>.I 3.U w.=.P .X8XJ.m C.l a j h g l.k.x.z.j.x.l.l.k C.b.m $XzXxXZXGXFXDXFXCXFXCXGXGXGXGXZXZX",
"GXGXGXGXGXGXGXGXGXFXPXZXZXVXmXrX{.W I :.:.) #.1.H Q #X6 m C.a a d d f k x.k.g.k.g.l.N.B C.Z.m K.hXPXBXZXZXnXFXFXAXCXAXAXGXFXZXZX",
"GXGXGXGXGXGXGXGXGXGXFXZXZXZXZXvXaX).J 3.( K ! @.L O 0.G.N Z.g a s j f j.x.z.g.z.k.k.N.k N.Z.N n.5XBXjXKXFXZXZXGXGXGXAXAXGXGXFXZX",
"GXGXGXGXGXGXGXGXNXGXFXGXZXZXnXdXaX_.J I ) _ >.T.i.=.9.S.5 B y 8 s k k k B.z.z.z.x.k.x.k.l.V.m.n.^.lXjXBXZXZXFXZXGXGXAXGXGXGXGXZX",
"GXGXGXGXGXGXGXGXGXGXZXGXGXFXZXZX3X8.P I T r.'  X1X{.8X!.z B N f 8 l k y j.B.z.z.g.y x.x.k.x.j.v.G.qXhXBXkXFXZXZXFXGXGXGXGXKXGXFX",
"GXGXGXGXGXGXGXGXGXGXZXPXZXPXZXvX;X# X.3.T { G 7.2XdXkXOXA x m.j.p j N i g.m.B.j.g.f k.x.k.k.x.B.6 @XhXhXjXZXZXZXZXGXGXAXGXGXGXGX",
"FXGXGXGXGXGXGXGXKXKXGXGXSXKXGXnXR.- L 3._ { r.X a.dXfXgXH.z M.N s q d l f k B.j.l.x.k.k.k.h.z.B.F.G.6X0XBXKXZXZXZXFXGXKXSXKXGXGX",
"FXFXFXGXGXGXGXGXKXGXGXGXFXFXGXZX*X$.X.U q.! q.8.: [.ZXjXOX1 m N.j 8 d N.h f N.N.j.V.z.k.x.k.g.p b.F.$XqXlXZXmXnXZXFXKXKXKXKXGXGX",
"GXGXGXGXFXGXFXGXGXGXGXGXGXGXGXFXVX[.%.O J Q >.e.O.5.uXFX,XQ.1 9 q 8 w l d j N.g N.l.l.N.l.y g.V.Z.m K.6XhXKXZXnXZXZXKXKXBXSXAXGX",
"GXGXGXGXGXGXGXGXGXGXGXGXGXGXGXGXxXCXaX=Xs.:.P +.O.- [.VXlX7XF.2 h r q q l j q l l l.N.N.j.m.m.m.Z.b.F.$XhXMXFXnXZXFXKXKXKXGXGXGX",
"GXGXGXGXGXGXGXFXGXGXGXGXGXGXGXGXCXCXjXaX2X Xp.@ O.- [.nXlXhXoXC 2 u e q j w w l s l l.N.M.Z.Z.m.V.m.6 XX0XjXFXDXFXFXGXBXBXKXGXGX",
"GXGXGXGXGXGXGXGXGXFXGXGXGXGXGXAXCXCXVXBXpXrX2X;XU.R.uXnXdXlXhXoXn 1 9 b e r V j l h k N.m.j.M.N.l.V.i J.qXlXFXFXFXFXKXBXKXKXGXGX",
"GXGXGXGXGXGXGXFXGXGXGXGXGXGXGXGXAXAXMXPXNXNXNXdXcXnXZXZXNXcXNXhX+XA 2 c M v j r l j f M.N.k N V.h.g.Z.A 5XkXCXFXGXGXBXKXBXKXGXGX",
"GXGXGXGXGXGXGXGXGXGXGXGXGXGXGXGXCXGXGXAXMXSXZXPXBXKXmXNXFXnXVXBXgX+XS 5 z v e r d g g f k M.M.l.c.h.A.6 ^.lXAXGXGXGXKXBXKXKXGXFX",
"GXAXGXGXGXGXGXGXFXFXGXGXGXGXGXGXGXFXFXAXAXAXGXGXMXSXKXBXGXAXAXAXiXjX>XS c x 9 q q d f f f k M.l.c.h.B.n.G.iXCXCXGXGXBXBXBXGXFXZX",
"GXGXGXGXGXGXGXGXGXGXGXGXGXGXGXGXKXZXZXFXGXGXZXFXAXMXKXSXxXCXCXCXGXMXjX5XG.5 0 8 q q d g h f k V.c.g.g.b.C >XSXFXGXGXKXBXKXGXFXFX",
"GXGXGXGXGXGXGXGXGXGXGXGXGXGXGXGXGXFXGXGXGXGXGXGXGXGXGXKXGXGXGXGXAXGXMXBXqXG.5 m V t w w q l M.y h.h.z.A.6 !.BXKXGXGXFXZXKXGXGXGX",
"GXGXGXGXGXGXGXGXGXGXGXGXGXGXGXGXGXGXGXGXGXGXGXGXGXGXGXGXGXGXGXGXVXGXGXPXlXqX^.5 0 v t r l g 8 l.g g j.v.n.S.hXKXGXGXZXZXBXKXGXGX",
"GXGXGXGXGXGXGXGXGXGXGXGXGXGXGXGXGXGXGXGXGXGXGXGXGXGXGXGXGXGXGXKXGXVXGXBXzXlX9X^.5 x x t q d d g d l f v.b.6 +XlXAXAXZXZXKXBXGXGX",
"GXGXGXGXGXGXGXGXGXGXGXGXGXGXGXGXGXGXGXGXGXGXGXGXGXGXGXGXGXGXGXKXBXPXKXZXfXzXlXgXOXA 1 x 9 q d d d g s f M.3 ~.jXBXAXFXZXKXKXGXAX",
"GXGXGXGXGXGXGXGXGXGXGXGXGXGXGXGXGXGXGXGXGXGXGXGXGXGXGXGXGXGXGXKXBXlXBXNXZXFXGXMXxX,XS 1 x V t q j j d g h i F.9XBXGXGXFXZXBXGXGX",
"GXGXGXGXGXGXGXGXGXGXGXGXGXGXGXGXGXGXGXGXGXGXGXGXGXGXGXGXGXGXGXKXgXlXBXNXZXZXZXDXxXCX7XG.5 x e t e e d d s B c >XjXGXGXZXZXZXKXSX",
"GXGXGXGXGXGXGXGXGXGXGXGXGXGXGXGXGXGXGXGXGXGXGXGXGXGXGXGXGXGXGXBXlXlXlXGXFXVXmXDXFXIXMXiXQ.5 c b x 9 r a a h 9 ^.gXAXGXGXZXZXBXKX",
"GXGXGXGXGXGXGXGXGXGXGXGXGXGXGXGXGXGXGXGXGXGXGXGXGXGXGXGXGXGXGXKXBXBXBXGXAXFXDXZXnXZXBXjXiXOXF < c x r w s q 9 H.gXSXGXGXZXZXBXBX",
"GXGXGXGXGXGXGXGXGXGXGXGXGXGXGXGXGXGXGXGXGXGXGXGXGXGXGXGXGXGXGXGXFXFXGXGXAXGXGXZXZXZXZXzXjXjX>XD 5 c M 8 8 h x F gXBXAXGXZXZXBXKX",
"GXGXGXGXGXGXGXGXGXGXGXGXGXGXGXGXGXGXGXGXGXGXGXGXGXGXGXGXGXGXGXGXFXFXGXAXAXAXGXGXZXZXZXNXBXBXMXiX/.5 1 0 9 0 < F jXMXGXGXZXNXBXKX",
"GXGXGXGXGXGXGXGXGXGXGXGXGXGXGXGXGXGXGXGXGXGXGXGXGXGXGXGXGXGXGXFXFXFXGXAXMXSXSXBXKXNXNXZXZXVXAXMXiX>XH.2 2 m 5 Z MXMXAXKXKXZXKXKX",
"GXGXGXGXGXGXGXGXGXGXGXGXGXGXGXGXGXGXGXGXGXGXGXGXGXGXGXGXGXGXGXGXZXGXGXGXAXSXSXBXBXNXNXZXFXVXVXAX,XiX5XXXA 4 4 Z MXCXGXKXNXNXKXKX",
"GXGXGXGXGXGXGXGXGXGXGXGXGXGXGXGXGXGXGXGXGXGXGXGXGXGXGXGXGXGXGXGXGXGXGXGXGXBXSXBXBXBXZXZXFXFXFXAXCXMXgXqXqXOX/.,XCXAXKXBXBXKXGXFX",
"GXGXGXGXGXGXGXGXGXGXGXGXGXGXGXGXGXGXGXGXGXGXGXGXGXGXGXGXGXGXGXGXGXKXKXGXKXKXKXBXMXBXKXBXZXKXKXGXxXCXlX9X7XjXBXCXCXAXBXBXBXBXFXFX",
"GXGXGXGXGXGXGXGXGXGXGXGXGXGXGXGXGXGXGXGXGXGXGXGXGXGXGXGXGXGXGXGXBXBXBXKXKXGXGXGXGXGXAXBXMXBXBXKXGXFXfXNXBXGXDXVXCXCXBXBXBXBXFXZX",
"GXGXGXGXGXGXGXGXGXGXGXGXGXGXGXGXGXGXGXGXGXGXGXGXGXGXGXGXGXGXGXGXBXBXBXNXKXZXGXGXGXAXMXSXBXBXBXBXZXZXnXZXGXCXnXFXCXAXBXlXBXKXFXZX"
};
