/* XPM */
static char *c4de09bae8f743bfb3abe940adedac4bTBlL3XwtJ6aHntXQ[] = {
/* columns rows colors chars-per-pixel */
"64 64 253 2 ",
"   c #020202",
".  c #0B0103",
"X  c #000A04",
"o  c #0D020C",
"O  c #020C0A",
"+  c #060709",
"@  c #13000D",
"#  c #1D000C",
"$  c #1F0C0E",
"%  c #121215",
"&  c #23000C",
"*  c #2A000C",
"=  c #280006",
"-  c #3B040B",
";  c #260612",
":  c #3A1319",
">  c #350914",
",  c #2A1D25",
"<  c #1E2926",
"1  c #252B2A",
"2  c #343837",
"3  c #362F31",
"4  c #1E201F",
"5  c #48030A",
"6  c #4D0B14",
"7  c #480815",
"8  c #530314",
"9  c #540C16",
"0  c #5B0319",
"q  c #550C1B",
"w  c #5B0D1B",
"e  c #590517",
"r  c #4C1314",
"t  c #4C141C",
"y  c #46151B",
"u  c #551216",
"i  c #54141A",
"p  c #5B131C",
"a  c #54191B",
"s  c #5A1A1D",
"d  c #561417",
"f  c #500008",
"g  c #640115",
"h  c #63031B",
"j  c #6B031D",
"k  c #640C1D",
"l  c #6B0B1E",
"z  c #640817",
"x  c #72021D",
"c  c #72061C",
"v  c #63111D",
"b  c #66131D",
"n  c #69000E",
"m  c #5E0B23",
"M  c #590C23",
"N  c #4C1823",
"B  c #531423",
"V  c #5D1522",
"C  c #5B1A23",
"Z  c #571B26",
"A  c #640421",
"S  c #6D0323",
"D  c #640C23",
"F  c #6A0B23",
"G  c #6A0C2A",
"H  c #680629",
"J  c #730223",
"K  c #7C022C",
"L  c #7B0C2C",
"P  c #740625",
"I  c #631324",
"U  c #6B1223",
"Y  c #621B24",
"T  c #64142B",
"R  c #6C132B",
"E  c #6A1B2C",
"W  c #74132B",
"Q  c #77172D",
"!  c #790531",
"~  c #6B1C32",
"^  c #741C34",
"/  c #7B1735",
"(  c #5A2629",
")  c #502F32",
"_  c #68252A",
"`  c #672636",
"'  c #77263A",
"]  c #683538",
"[  c #7D1D4D",
"{  c #7F1641",
"}  c #7C2943",
"|  c #6C3A44",
" . c #7A3846",
".. c #793E50",
"X. c #5D3D40",
"o. c #794852",
"O. c #704D50",
"+. c #7A5964",
"@. c #76696C",
"#. c #585B5A",
"$. c #83022C",
"%. c #8B002D",
"&. c #820B2D",
"*. c #91032F",
"=. c #880834",
"-. c #950639",
";. c #871738",
":. c #95123C",
">. c #AA053C",
",. c #84253D",
"<. c #891749",
"1. c #9A1746",
"2. c #AA0C49",
"3. c #B90C4A",
"4. c #AC134B",
"5. c #A61949",
"6. c #B7174D",
"7. c #AB1B53",
"8. c #BD1553",
"9. c #BB1B55",
"0. c #B71956",
"q. c #B30E50",
"w. c #872844",
"e. c #972748",
"r. c #88364C",
"t. c #953951",
"y. c #933350",
"u. c #A6224C",
"i. c #A82755",
"p. c #B62559",
"a. c #A73958",
"s. c #B9305E",
"d. c #BA2962",
"f. c #B93A68",
"g. c #AB3766",
"h. c #C31555",
"j. c #C31D5B",
"k. c #C81857",
"l. c #D8145C",
"z. c #CB0D52",
"x. c #E31B5D",
"c. c #C4245B",
"v. c #C6265B",
"b. c #D5275F",
"n. c #CA1C61",
"m. c #D41E63",
"M. c #DB1B65",
"N. c #E91C67",
"B. c #CC2363",
"V. c #C42669",
"C. c #CC2269",
"Z. c #C72A64",
"A. c #D62868",
"S. c #C9346A",
"D. c #D3316C",
"F. c #CB3973",
"G. c #D73974",
"H. c #DE2C70",
"J. c #E22568",
"K. c #EA2B71",
"L. c #EA3877",
"P. c #894454",
"I. c #85555C",
"U. c #934756",
"Y. c #A1475E",
"T. c #965666",
"R. c #8F5462",
"E. c #AD466A",
"W. c #BA4A73",
"Q. c #B44F6E",
"!. c #88636A",
"~. c #896D71",
"^. c #937075",
"/. c #A36574",
"(. c #B06D7A",
"). c #CA4C78",
"_. c #9B7C83",
"`. c #8D7A82",
"'. c #B37786",
"]. c #D85889",
"[. c #CC5285",
"{. c #ED5990",
"}. c #CE6F8F",
"|. c #EC6E9A",
" X c #E976A3",
".X c #F779AA",
"XX c #FF7EB0",
"oX c #968689",
"OX c #999A9B",
"+X c #8E908F",
"@X c #B68B93",
"#X c #A3969A",
"$X c #B0898D",
"%X c #97A39C",
"&X c #AA97A1",
"*X c #B0B2AF",
"=X c #93A1A1",
"-X c #CB8C9A",
";X c #D792A7",
":X c #F68AB5",
">X c #EC90B3",
",X c #DCAAB8",
"<X c #CCB0B3",
"1X c #E4A6B9",
"2X c #E6ABB7",
"3X c #D0C1BE",
"4X c #FF99C4",
"5X c #D9BBC4",
"6X c #EAA8C1",
"7X c #FCA6CB",
"8X c #E7B9C6",
"9X c #FFB7D9",
"0X c #F8B0D3",
"qX c #FFBAE3",
"wX c #D8CBCD",
"eX c #D5D3D1",
"rX c #E6C5CA",
"tX c #F7C6CC",
"yX c #E8C9D2",
"uX c #FBC9D8",
"iX c #E8D5D8",
"pX c #FAD7DB",
"aX c #E1D2CF",
"sX c #D3E4DA",
"dX c #EDE0DE",
"fX c #FFCAE9",
"gX c #FCDCE3",
"hX c #FBD9E8",
"jX c #FFC8F1",
"kX c #FFDCFC",
"lX c #FFD6F4",
"zX c #EEDCE1",
"xX c #DDFFFF",
"cX c #E9E6E7",
"vX c #FCE2E4",
"bX c #FEE3EB",
"nX c #F8E6E8",
"mX c #E7F5EB",
"MX c #FEECF4",
"NX c #FFE4FD",
"BX c #FFECFE",
"VX c #FBE7F2",
"CX c #ECFCF5",
"ZX c #E4FFFF",
"AX c #ECFFFE",
"SX c #EAF7F5",
"DX c #F2FBF6",
"FX c #FCFFF5",
"GX c #FFF4FD",
"HX c #F4FFFE",
"JX c #FEFEFF",
"KX c #F6F3F5",
"LX c #F5F9EC",
/* pixels */
"JXJXJXJXJXJXJXJXJXJXJXJXJXJXJXJXJXHXJXJXJXJXJXJXJXJXGXGXBXBXjX4X.XjXNXGXGXJXHXJXHXHXJXJXJXJXJXJXJXJXJXJXJXJXJXJXJXJXJXJXJXJXJXJX",
"JXJXJXJXJXJXJXJXJXJXJXJXJXJXJXJXHXJXHXJXJXJXJXJXGXJXJXBXBXBX4Xi.i.4XkXNXGXJXHXAXJXHXHXJXJXJXJXJXJXJXJXJXJXJXJXJXJXJXJXJXJXJXJXJX",
"JXJXJXJXJXJXJXJXJXJXJXJXJXJXJXJXHXDXJXJXJXJXJXJXJXJXHXGXBX>Xd.8.0.d.>XBXGXHXHXHXJXJXJXGXJXJXJXHXJXJXJXJXJXJXJXJXJXJXJXJXJXJXJXJX",
"JXJXJXJXJXJXJXJXJXJXJXJXJXJXJXJXFXJXHXJXJXJXJXJXHXKXJXGX0Xg.q.K.K.2.a.6XGXJXSXJXJXJXJXJXJXJXJXJXJXJXJXJXJXJXJXJXJXJXJXJXJXJXJXJX",
"JXJXJXJXJXJXJXJXJXJXJXJXJXJXJXJXJXJXJXHXJXJXJXJXHXDXGX0Xi.7.G.8.3.G.u.e.0XGXSXJXJXGXJXJXJXHXJXJXJXJXJXJXJXJXJXJXJXJXJXJXJXJXJXJX",
"JXJXJXJXJXJXJXJXJXJXJXJXJXJXJXJXJXJXJXJXJXJXJXJXHXJX8XE.p.D.0.-.*.v.D.p.E.6XGXJXJXGXJXJXJXHXJXJXJXJXJXJXJXJXJXJXJXJXJXJXJXJXJXJX",
"JXJXJXJXJXJXJXJXJXJXJXJXJXJXJXJXJXJXJXJXJXJXJXJXNXuXW.4.L.c.x &.L x v.G.>.).9XMXJXJXJXJXJXJXJXHXJXJXJXJXJXJXJXJXJXJXJXJXJXJXJXJX",
"JXJXJXJXJXJXJXJXJXJXJXJXJXJXJXJXJXJXJXGXJXJXJXJXlXW.6.A.4.*.=.A h / *.>.A.h.E.fXBXJXJXJXJXJXJXHXJXJXJXJXJXJXJXJXJXJXJXJXJXJXJXJX",
"JXJXJXJXJXJXJXJXJXJXJXJXJXJXJXJXHXDXGXGXMXGXJXhXE.v.A.c.$.S / A D ^ h J v.J.k.s.pXJXJXGXGXJXSXAXJXJXJXJXJXJXJXJXJXJXJXJXJXJXJXJX",
"JXJXJXJXJXJXJXJXJXJXJXJXJXJXJXJXJXSXJXGXVXGXlX(.6.J.6.=./ m 8 F D 8 0 W *.k.J.h.).pXBXbXGXJXSXAXHXJXJXJXJXJXJXJXJXJXJXJXJXJXJXJX",
"JXJXJXJXJXJXJXJXJXJXJXJXJXJXJXJXKXJXDXMXGXlX{.6.b.6.;.H M V T R D T B q F ;.6.b.3.{.fXGXBXHXJXHXJXJXJXJXJXJXJXJXJXJXJXJXJXJXJXJX",
"JXJXJXJXJXJXJXJXJXJXJXJXJXJXJXJXGXJXDXGXNX|.z.x.A.*.m Z Z B T m 8 T t t Z T *.b.x.z.|.NXGXHXJXGXJXJXJXJXJXJXJXJXJXJXJXJXJXJXJXJX",
"JXJXJXJXJXJXJXJXJXJXJXJXJXJXJXJXGXMXJXGX}.c.x.l.*./ t y ( 7 - ` ( - 6 ( y t ^ %.x.x.p.}.BXJXVXGXJXJXJXJXJXJXJXJXJXJXJXJXJXJXJXJX",
"JXJXJXJXJXJXJXJXJXJXJXJXJXJXJXJXGXGXBX;Xi.v.J.>.P I Z y : ] !._.^.!.] 7 y N w S >.b.9.i.;XBXBXGXJXJXJXJXJXJXJXJXJXJXJXJXJXJXJXJX",
"JXJXJXJXJXJXJXJXJXJXJXJXJXJXJXJXMXGX:Xu.v.S.:.L L 8 T V a $XvX&X@XpX$Xr V E 8 ^ W ;.S.s.0.:XBXBXJXJXJXJXJXJXJXJXJXJXJXJXJXJXJXJX",
"JXJXJXJXJXJXJXJXJXJXJXJXJXJXJXJXMX7X).h.S.u.F D h G G q I.vXnXoX~.LXvXI.q U D M q m i.Z.8.V.7XBXJXJXJXJXJXJXJXJXJXJXJXJXJXHXJXJX",
"AXHXHXJXJXGXGXGXFXDXHXSXJXJXcXGXqXS.8.G.7.J P w b b u t <XyXbXoX`.nXyX2Xi Y u z e W J 5.G.8.C.0XGXcXJXJXCXAXCXJXGXGXJXJXJXHXHXAX",
"HXHXHXJXJXJXGXGXJXHXCXCXFXMXJX9XG.n.9.0.$.S W k b d r ( 8XgXMXoX`.VXpXtX( d d _ w / J K 0.n.n.[.9XGXGXFXAXCXHXJXJXGXGXJXHXHXHXHX",
"JXJXJXHXJXGXJXJXJXJXJXHXHXJXlX].0.0.d.1.j j R w r r ( ] rXyXnX#XoXzXiXyXO.B r r 9 W j j 1.p.j.0.].lXJXHXDXDXJXJXJXJXGXJXJXHXJXJX",
"JXJXJXJXJXJXJXJXJXKXJXKXJXNX].j.F.0.<.! W k 9 p ( r : ( rXyXzXoX_.iXiXrX] - r ( d 9 A P ! <.p.F.c.].NXJXKXJXJXJXJXJXJXFXJXJXJXJX",
"JXGXFXJXFXJXHXHXJXKXHXBXkX;X0.n.p.<.h h R V 6 C a ( ( : O.) #.) 2 #.) | : a ] _ s 6 C R h S <.d.n.6.>XkXGXGXKXJXHXHXJXFXJXJXFXGX",
"FXFXGXGXJXFXHXHXJXKXGXNX7Xp.A.n.=./ A e V C a a o._ r ( <X2XaXoX^.yXwX,X) y _ O.a u p V 0 A L =.A.A.7.:XBXGXGXJXHXHXFXJXMXGXFXFX",
"FXFXMXGXJXHXHXAXAXJXNX9X{.z.D.1.J R E V r u a r ( r 5 ( rXpXLX@X_.vXvXpX] r 5 r a r i i V T R S 1.D.z.H.4XlXJXHXHXHXJXFXMXGXFXFX",
"FXFXFXFXJXJXHXHXHXGXqXV.l.N.1.! G 0 q p u r a a s r a _ tXpXpX_._.pXtXtX_ s r _ a u r a Z 8 8 G S 5.L.l.S.qXGXSXHXJXJXJXJXFXFXFX",
"FXFXDXDXJXJXJXHXJXfX).3.J.9.S ~ V p i i a d d u Y 9 9 _ tXtXKX@X$XLXtXpX_ d f _ d d d d d d w I T S h.J.3.G.fXGXJXHXJXJXJXFXFXFX",
"LXFXCXmXJXGXJXGXkX[.h.K.j.$.m B V V V p s p d 9 f ^ e v ;X1X-X^.R.-X2X;Xv z ' f w 9 d s p V s I B F $.j.K.8.[.kXGXJXGXJXmXCXFXLX",
"FXFXCXHXHXJXNXkX X0.h.B.&.D ` 7 9 9 9 d p p p k E g b E 5 5 y 5 r : - 5 ' b g b k p p d d w 9 9 7 ~ H =.A.h.0. XNXGXJXHXHXDXFXFX",
"DXmXHXJXSXHXkX:X6.H.B.=.h C C r d 9 9 9 d v v k z W z f I o.] O.] ]  .u f g U g U v w w 9 d 9 d i C C A %.C.H.q.:XNXGXDXJXJXmXDX",
"mXJXJXMXGXGX7Xd.h.A.1.A T q 5 _ ' _ Y p p p k k l l R ^ U.T.^.'.(.T./.P.' z F l k k w d p _ _ _ ` 5 r E H 1.A.h.d.4XBXGXGXJXJXmX",
"DXJXGXNXBX9Xf.0.A.q.! m C p u d _ _ C p p w D D W z ,.r.C o.@X$X@X$Xo.C P.,.k / G w w w p E _ _ d u p C m H 2.H.d.f.0XBXNXGXJXLX",
"JXJXBXBXjX[.2.F.7.! ! m 8 Y _ 5 b d u u w p D D 8 Y.W ^ I.tXhXyXaXbXtXT.` ^ E.8 D I v d d p d d 5 _ C 9 M H ! 7.F.2.[.jXBXGXJXJX",
"JXVXGXkX].h.H.j.! ! G T V r u b d s d p V I k h y.' D 1X-X2XuXgXvXpX,X;X>XT ^ r.h A I V s p d u s d r p T G ! ! V.V.9.].kXGXVXHX",
"SXGXkXXXq.n.D.$.! H M Z N y 6 s 9 i a C e F j w.w.G 7X'.8 ] 8XpXpXtXT e '.8X~ w.e.h D q C q r a Z r t N N V H ! ! F.M.q.XXNXJXSX",
"JXBX.Xq.M.m.-.<.=.H m B N ( B p q i i Z w W ! e.G (.uX7 q a !.LXvX^.V I > yX'.~ w.L F w I d p d p i ( N N M J %.=.-.M.N.q..XBXJX",
"BX0XF.z.N.l.-.-.%.=.H A N B V w p w B C D F ;.' t.BX/.> o.!.) aXiX] I.o.; _.GXr./ ,.D D V q d p p C i t 9 S %.*.%.-.x.N.z.F.7XBX",
"qXE.h.K.l.l.H.0.2.0.1.;.D q I k v z q i k D w.^ ,XVX!.> I.vX3 <X3X) pXo.: @.GX,X~ w.F k m w v I v I e A ;.1.9.q.q.D.l.l.K.9.E.fX",
"}.E.7.8.n.n.V.F.V.G.S.p.;.h U k l b d p m R }  .gXiXoX; !.*X+.oXoX+.<X~.$ oXiXnX..w.W k p w b l k U z ;.s.D.G.s.G.d.j.k.h.7.E.}.",
"NXkX4X X X).1.e.d.F.v.v.:.g W l l l w I D ' ' /.hXMX+X^.8XO.~.@.!.~.O.wX~.+XcXnX/.} ;.h V i l c l F x :.b.v.S.i.i.1.). X.X7XNXNX",
"JXGXBXBXNXNXlX0X X{.p.c.5.x Q h l l w V q r.~ -XGXaX*XdXvX<XX.O.I.) <XpXpXwXeXKX-X~ e.g V i F j l L j :.k.k.). X9XlXNXBXBXBXGXJX",
"HXJXJXGXBXJXGXBXkX9XG.v.6.K W 0 z U p C 8 r.B ,XiXeXdXvXtXvXI.5 6 U.VXwXpXzXeXdX,Xw a.g Z i U g k Q x 5.b.).uXBXNXBXJXDXGXGXJXHX",
"HXAXAXHXAXHXJXHXNXkXF.p.7.&.m T k I 9 C m } ' ,XzXiXiXiXuXfX(.9 0 (.hXtXpXyXcXiX,X^ e.x Z r I l U z &.u.v.F.lXBXGXJXAXZXHXHXAXAX",
"HXHXAXZXZXAXHXJXBXNX[.p.p.&.m Z E 9 C C w w.I 1XzXwXnX@XR.}.-XQ.a.Q.(.(.2XbXwXVX2XF e.P i a d I p e ;.p.c.].NXGXGXHXZXZXAXAXHXHX",
"GXJXJXHXHXAXJXJXBXNX X7.Z.;.V B Y 5 C i g r.D ;XpXiXiXO.P.E.Q.).Q.e.Y./.^.yXwXhX1Xk e.P u a r r t q ;.p.5..XBXBXGXJXAXAXHXJXJXJX",
"GXGXJXJXHXJXJXGXBXBX4X5.S.;.M N C d Z 9 D r./ '.gXzXgX+.' ;.,.Q.).,.<. .!.nXzXhX'.Q :.W ] P.] | | T ;.s.u.:XBXBXJXJXJXHXJXJXGXMX",
"BXBXJXJXJXJXJXJXBXBX9Xi.S.1.m B _ ,.C w F / ,.r.VXwXnX5X` ~ } U.U.,.^ Z <XFXwXhX,.u.;.Q (.(.(.(./.' :.Z.i.9XGXJXJXJXJXJXJXJXMXGX",
"GXGXJXJXJXJXJXJXGXBXjXf.Z.5.H M (  .9 w S J w.` 5XwXiXgXo...t.}.-XP. .o.zXsXwXyXR a.S F Y.P.I.o./.<.5.v.g.fXNXGXJXJXJXJXJXFXFXGX",
"FXJXHXHXHXHXJXJXJXBXkX).Z.7.L A 9 Y 7 w F j w.' ~.KXiXwX| N } VXMX| 7 o.eXsXcX~.' u.z g W 9 r 7  .&.6.p.W.NXNXGXJXHXJXJXAXAXJXMX",
"FXJXHXAXAXAXJXJXJXBXNX].v.j.=.H w d d U L S ;.w.: 5XaXnX+.> > `._.y > !.cXsX<XN y.L S W z 9 a Z 0 $.b.h.[.BXBXJXJXHXHXAXAXCXFXJX",
"GXGXHXAXxXZXJXGXJXBXBX>X8.A.=.H p p V k l F Q ^ ~ ..6XVX5X+.) @.@., +.yXVX5X..~ / Q j z I I s i m =.A.8.>XBXBXGXGXJXZXxXAXJXJXGX",
"GXJXJXHXxXZXGXGXJXGXGX6Xh.J.<.m q d w 9 0 h F R Y.~ } ,XBXVXyX`.~.VXBXlX6X .T Y.W F 0 e w p i 9 H =.M.8.1XGXKXJXGXJXZXxXAXJXJXGX",
"GXJXJXHXZXAXJXGXJXGXHXuXj.J.1.H p s s w v k v F 0 t.| T /.5XbXuXVXfX,X'.` T Y.0 U T v v v s s p H 1.J.h.9XJXGXJXGXJXAXZXHXJXJXGX",
"JXJXJXHXZXHXJXGXJXGXGXlXZ.M.q.J b d d p v k z k w.M y.} M ~ P./.T.R.} 7 r.t.z ,.h z k k w d d w P 4.m.B.lXJXHXJXGXGXAXAXDXJXJXJX",
"JXJXJXJXAXHXGXGXJXHXJXBXG.M.0.K l v b b U U c j t.L L ;.E.e.g ;.! J a.a.;.L L Y.j F U U v z p l K 0.l.G.NXJXHXJXGXGXHXAXJXJXJXJX",
"FXJXJXJXHXJXGXGXHXHXJXBX{.k.j.%.x z z z c c F x L K x &.c *.).:.p.i.=.=.$.n &.&.c c c c l l z c %.9.z.{.BXJXHXJXGXJXJXDXJXJXJXJX",
"JXJXJXJXJXJXGXJXHXHXJXGXXXh.A.-.J j j l c F S S x K n $.%.n $.%.x :.n c =.J J S P j l j j j x x 2.B.8..XBXHXHXHXJXGXJXJXJXJXJXHX",
"HXJXJXJXJXJXJXGXHXAXHXBX4X9.D.4.u.u.5.1.u.u.u.e.i.:.d.7.4.S.6.>.8.6.Z.6.7.p.1.i.u.u.e.5.u.u.u.5.2.S.6.4XBXHXAXHXJXGXJXJXJXJXJXHX",
"CXHXJXJXKXKXJXGXHXAXHXNXqXi.p.Z.m.m.m.m.n.B.B.B.C.C.C.m.m.M.M.M.M.M.M.m.m.m.C.V.B.B.B.B.B.m.m.A.V.d.7.qXGXHXSXAXGXMXMXJXJXGXDXCX",
"DXJXcXKXJXJXGXJXHXHXHXGXkXW.f.p.C.M.A.m.C.C.V.V.V.V.V.V.V.V.m.C.m.m.C.V.V.V.V.V.V.V.C.C.C.m.M.C.d.W.g.jXGXHXAXAXJXGXFXGXJXJXDXHX",
"%X*XOX#X#XoXOX&XOX=X=X#X@X} w.{ <.<.<.<.<.[ [ [ [ [ [ [ [ [ [ [ [ [ [ [ [ [ [ [ [ [ <.<.<.<.<.<./ w.} @X&X=X+X=X&XOXOXOX#XOXOX%X",
"    X o     + O + O     ; & * * * * ; ; & & & & # # # # # # # # # # # # # # # # # & # & * * * * * * & ;     + o     . . X     X ",
"O   #.OX%XOX+X2   + o . ; o # @ @ @ @ @ @ @ @ o @ o @ o o @ o o o o o o o o @ @ @ @ @ @ @ @ @ @ # ; o o .   % 1 1 1 1 3 1 4 % O ",
"X   #.wX*X*X*X@.  o o o + + +               . .   .   .                     o                     +       @ 4 3 2 1 2 2 3 % X X ",
"+   4 2 1 1 #.#.+ o o   + O   O X X X X X   . . . . . . .   . X X . .   . . . . . . . X O O X X X + O +   o @ 4 1 < < 1 < % .   ",
". X X X X   X     o o   O O O O X X X X         . . . . .             . . . . . .         X X X O O O   . . . % X X   X X X   . "
};
