/* XPM */
static char *a4d84a9d535f4ce1a7fde9321209b738nWKIUCn6NxdczbP3[] = {
/* columns rows colors chars-per-pixel */
"64 64 222 2 ",
"   c #2F1800",
".  c #6A5334",
"X  c #776040",
"o  c #786046",
"O  c #876D52",
"+  c #927B5B",
"@  c #B1997F",
"#  c #B19C81",
"$  c #B2A690",
"%  c #BFBA94",
"&  c #D89C94",
"*  c #E39E97",
"=  c #CDA58C",
"-  c #C8A687",
";  c #D1A58F",
":  c #D0A88F",
">  c #DEAC8D",
",  c #D8A586",
"<  c #C2B082",
"1  c #DCBF86",
"2  c #DCBE8C",
"3  c #CDA794",
"4  c #CCAD92",
"5  c #CFAE9F",
"6  c #C6AC91",
"7  c #D2A494",
"8  c #DBA592",
"9  c #DBAA92",
"0  c #D3A599",
"q  c #DDA59B",
"w  c #D5AD9B",
"e  c #DCAD9D",
"r  c #CCB496",
"t  c #CBB49A",
"y  c #C7B99E",
"u  c #CCBC9C",
"i  c #C6B598",
"p  c #DCB391",
"a  c #D3BD94",
"s  c #DABD94",
"d  c #D5B59C",
"f  c #D4BE9B",
"g  c #DFBE9B",
"h  c #D1B397",
"j  c #E4BF8B",
"k  c #E3A59C",
"l  c #E0AA9C",
"z  c #E1AD95",
"x  c #E1B090",
"c  c #ECBD97",
"v  c #E5B19D",
"b  c #E8BA97",
"n  c #D3ADA0",
"m  c #CBBBA2",
"M  c #C0B9A9",
"N  c #D4B0A0",
"B  c #D9B2A1",
"V  c #D4BEA5",
"C  c #D8BBA3",
"Z  c #DCBCAC",
"A  c #DBB5AA",
"S  c #DCBEB3",
"D  c #E6A7A2",
"F  c #E5A9A1",
"G  c #E8AEA2",
"H  c #E5B6A3",
"J  c #EFBDB2",
"K  c #E5BFB2",
"L  c #DCC38C",
"P  c #D4C08E",
"I  c #CCC39E",
"U  c #CBC394",
"Y  c #D4C195",
"T  c #DCC494",
"R  c #DDC994",
"E  c #D3C39B",
"W  c #DCC59B",
"Q  c #D2CA9E",
"!  c #DDC99C",
"~  c #E0C087",
"^  c #E3C38C",
"/  c #E8C38F",
"(  c #E3CA8D",
")  c #E2C394",
"_  c #EBC193",
"`  c #E4CB92",
"'  c #E2C59E",
"]  c #EDC59B",
"[  c #E2CB9C",
"{  c #EBC89E",
"}  c #F0C098",
"|  c #E5D29B",
" . c #E9D09A",
".. c #CCC3A4",
"X. c #CDC2AA",
"o. c #CBC7A3",
"O. c #D4C3A4",
"+. c #DCC4A3",
"@. c #D2CBA4",
"#. c #DDCBA4",
"$. c #D4C5AA",
"%. c #DBC5AA",
"&. c #D5C9AD",
"*. c #DCCBAC",
"=. c #DED2AB",
"-. c #D6D1AB",
";. c #CEC6B3",
":. c #DDC5B5",
">. c #DCCCB4",
",. c #D1CCBC",
"<. c #DCCEBA",
"1. c #D3C7B1",
"2. c #DCD1B4",
"3. c #D6D0B8",
"4. c #DFD2BA",
"5. c #D9D5B8",
"6. c #EAC6A4",
"7. c #E3CCA4",
"8. c #EBCFA4",
"9. c #EDC0A9",
"0. c #E4CDAB",
"q. c #EBCFA9",
"w. c #F0C5A5",
"e. c #E5D2A5",
"r. c #EAD3A5",
"t. c #E5D2AC",
"y. c #ECD4AD",
"u. c #EDD8AE",
"i. c #E3D8AB",
"p. c #F0D4AB",
"a. c #F1DAAD",
"s. c #E4C6B4",
"d. c #EAC0B0",
"f. c #E4CDB3",
"g. c #E8CFB2",
"h. c #E7C9BD",
"j. c #F1CBB4",
"k. c #E4D3B2",
"l. c #EBD5B2",
"z. c #ECDAB4",
"x. c #E3D3BC",
"c. c #EBD5BA",
"v. c #E3DABD",
"b. c #EAD9B9",
"n. c #E7DBB5",
"m. c #F1D6B2",
"M. c #F2DBB3",
"N. c #F0D3BC",
"B. c #F2DCBB",
"V. c #F8DEBB",
"C. c #ECE0AE",
"Z. c #EFE2BD",
"A. c #F4E3B6",
"S. c #F4E2BC",
"D. c #D6D4C7",
"F. c #DFD8C5",
"G. c #DED7CD",
"H. c #DDD3C7",
"J. c #E2D5C2",
"K. c #EAD6C3",
"L. c #E4DAC3",
"P. c #EBDBC3",
"I. c #E3DCCB",
"U. c #ECDDCB",
"Y. c #EED6CA",
"T. c #F3D7C1",
"R. c #F4DEC4",
"E. c #FCDEC4",
"W. c #F2D5C9",
"Q. c #FBDBCC",
"!. c #E3DDD2",
"~. c #F7DFD2",
"^. c #F9DFD2",
"/. c #EDE0C4",
"(. c #ECE2CB",
"). c #EEEACF",
"_. c #E5E2C3",
"`. c #F5E2C2",
"'. c #FAE2C2",
"]. c #F1E2CD",
"[. c #FFE6CB",
"{. c #F5E9CF",
"}. c #FCEACC",
"|. c #FFF0CF",
" X c #EFE4D5",
".X c #EEEBD4",
"XX c #EBE5DB",
"oX c #EEE8D8",
"OX c #E4E1D2",
"+X c #F4E5D3",
"@X c #F2EBD4",
"#X c #F9EAD4",
"$X c #F3E7D9",
"%X c #FBE3DA",
"&X c #F4EDDC",
"*X c #FCEDDB",
"=X c #FAE3D3",
"-X c #F7F1D7",
";X c #FFF3D4",
":X c #F7F2DD",
">X c #FDF2DD",
",X c #FFFDDC",
"<X c #EFEFE3",
"1X c #EDEEE9",
"2X c #FAECE2",
"3X c #FAEFE9",
"4X c #F4EDE5",
"5X c #F7F1E5",
"6X c #FEF4E4",
"7X c #FFFCE4",
"8X c #F5F3EC",
"9X c #FEF5EB",
"0X c #FFFCEC",
"qX c #F6F8EA",
"wX c #F5F5F4",
"eX c #FBF6F4",
"rX c #F6FEF3",
"tX c #FEFDF4",
"yX c #F6F5FF",
"uX c #FCF6FF",
"iX c #F6FDFD",
"pX c #FEFEFE",
/* pixels */
"pXpXpXpXpXpXpXpXpXpXpXpXpXpXpXpXuXpXpXpXpXpXpXpXiXiXiXiXpXpXuXiXiXiXiXiXiXiXpXiXrXtXtXtXtXpXuXpXpXpXpXpXpXpXpXpXpXpXpXpXpXpXpXpX",
"pXpXpXpXpXpXpXpXpXpXpXpXpXpXpXpXpXuXuXpXpXpXpXpXiXiXiXpXpXpXpXiXpXiXpXiXpXpXpXtXtX0X0XtXpXpXuXuXpXpXpXpXpXpXpXpXpXpXpXpXpXpXpXpX",
"pXpXpXpXpXpXpXpXpXpXpXpXpXpXpXpXpXpXpXpXpXpXiXrXpXpXpXpXpXpXuXpXrXrXpXpXiXiXpXpXtX0X0X0XtXuXuXuXpXpXpXpXpXpXpXpXpXpXpXpXpXpXpXpX",
"pXpXpXpXpXpXpXpXpXpXpXpXpXpXpXpXpXpXpXpXpXpXpXpXiXiXpXpXpXpXpXpXrXtXpXiXtXpXpXtX:X.X-X:X0XtXpXpXpXpXpXpXpXpXpXpXpXpXpXpXpXpXpXpX",
"pXpXpXpXpXpXpXpXpXpXpXpXpXpXpXpXpXpXpXpXpXiXrXpXrXiXpXtXtXtXtXtXtXtXtXpXtXuXtX0X3.-.3.v.+X3XeXpXpXpXpXpXpXpXpXpXpXpXpXpXpXpXpXpX",
"pXpXpXpXpXpXpXpXpXpXpXpXpXpXpXpXpXpXpXiXpXpXpXiXtXtXtXtXtX9X6X0X7X0XtXtXtXtX0X@X......*.L.+X9XtXpXpXpXpXpXpXpXpXpXpXpXpXpXpXpXpX",
"pXpXpXpXpXpXpXpXpXpXpXpXpXpXpXpXpXiXpXiXpXiXpXtXpXtXtX0X6X(.P.U.U.#X2X6XtXtX6XP.I E Q Q *.P.*XtXpXpXpXpXpXpXpXpXpXpXpXpXpXpXpXpX",
"pXpXpXpXpXpXpXpXpXpXpXpXpXpXpXpXpXpXiXiXpXiXiXiXtXtX0X0X#X>.$.%.V f.K.^.3X0X>Xc.u E Y Y I *.~.6XpXpXpXpXpXpXpXpXpXpXpXpXpXpXpXpX",
"pXpXpXpXpXpXpXpXpXpXpXpXpXpXpXpXiXiXpXiXpXiXpXpXtXtXtX7X].%.t 6 5 C Z Z W.6X*Xg.f R ! ! E #.x.(.pXpXpXpXpXpXeXpXpXpXpXpXpXpXpXpX",
"pXpXpXpXpXpXpXpXpXpXpXpXpXpXpXpXpXiXiXpXpXiXiXpXtXtXtX0X#X*.r 4 4 B B n K Q.E.q.s T L R E W t.P.tXpXpXuXpXpXiXpXpXpXpXpXpXpXpXpX",
"pXpXpXpXpXpXpXpXpXpXpXpXpXpXpXpXiXpXpXiXpXpXiXpXpXtXtX0X>Xf.t r 3 e n & e J j.6.s L L P R W 7.>.9XpXpXpXpXpXiXpXpXpXpXpXpXpXpXpX",
"pXpXpXpXpXpXpXpXpXpXpXpXpXpXpXpXtXpXrXpXiXpXpXpXpXeX0X0X6Xx.t h ; l F 0 0 H 9.w.) 1 L L T ) +.$.4XpXpXpXpXpXuXpXpXpXpXpXpXpXpXpX",
"pXpXpXpXpXpXpXpXpXpXpXpXpXpXpXpXpXtXpXpXpXpXpXpXpXeXeXtX0XK.V d ; k D D q e H w._ ^ 1 L L ` W $.XXpXuXpXpXpXpXpXpXpXpXpXpXpXpXpX",
"pXpXpXpXpXpXpXpXpXpXpXpXpXpXpXpXtXpXpXpXpXpXpXpXpXeXeXtX0X=X>.C 8 * k D D l z b ] _ j L ) ` 6.$.!.iXpXtXpXpXpXpXpXpXpXpXpXpXpXpX",
"pXpXpXpXpXpXpXpXpXpXpXpXpXpXpXpXtXtXpXpXpXpXpXpXpXpXuXtXeX6XR.Z G * * k D k 9 x ] / j j L ) ' *.G.eXpXuXpXpXpXpXpXpXpXpXpXpXpXpX",
"pXpXpXpXpXpXpXpXpXpXpXpXpXpXpXpXpXtXpXpXpXpXpXpXuXpXuXtXtXtX$X:.J k & k F q 8 > } / j 1 2 T 7.0.H.eXpXeXpXpXpXpXpXpXpXpXpXpXpXpX",
"pXpXpXpXpXpXpXpXpXpXpXpXpXpXpXpXpXpXpXpXpXpXpXuXpXpXpXuXpXpXpXtXH.A 0 & e v z , c _ _ b s T [ *.4.2XtXpXpXuXpXpXpXpXpXpXpXtXtXtX",
"pXpXpXpXpXpXpXpXpXpXpXpXpXpXpXpXpXpXpXpXpXpXpXpXpXpXpXpXpXpXpXpX%XY.S n 4 7 9 > > b ] ] ) s R #.2.#X0XtXtXpXpXpXpXpXpXpXtXtXtX0X",
"pXpXpXpXpXpXpXpXpXpXpXpXpXpXpXpXpXpXtXpXtXpXpXpXpXpXpXpXpXpXpXpXeXeX^.J.B 3 ; 9 - x ] { b a R e.$.+X0XtXtXpXpXiXpXpXpXpXpXtXtXtX",
"pXpXpXpXpXpXpXpXpXpXpXpXpXpXpXpXpXtXtXpXpXpXtXtXpXtXpXtXpXpXtXpXuXeXtX2XW.Z h 7 = p ' { W R #.t.%.P.*X7XtXtXpXuXpXpXpXpXpXtXtXtX",
"pXpXpXpXpXpXpXpXpXpXpXpXpXpXpXpXtXtXtXpXtXtXtXtXtXpXtXpXtXtXtXpXeXpXpXtX9X^.s.B h h b 7.7.8.t.y.*.l.P.+X6XtXtXpXpXpXpXpXpXpXpXtX",
"pXpXpXpXpXpXpXpXpXpXpXpXpXpXpXpXpXpXtXrXtXpXtXpXtXtXpXtXpXpXtXpXpXuXpXpXtX6X=Xc.C 6.W #.t.u.u.y.n.=.2.L.@X0XtXpXpXpXpXpXpXpXpXpX",
"pXpXpXpXpXpXpXpXpXpXpXpXpXpXpXpXpXpXpXpXpXpXpXpXpXpXpXtXpXtXpXtXiXpXpXpXtXtX6X*X%.+.0.l.z.z.y.y.y.i.k.x.L. X9XpXpXpXpXpXpXpXpXpX",
"pXpXpXpXpXpXpXpXpXpXpXpXpXpXpXpXpXpXpXpXpXpXpXpXpXpXpXpXpXpXpXpXpXpXuXpXpXtX7X6XV 0.c.B.n.y.y.i.i.z.n.k.>.L.2XtXpXpXpXpXpXpXpXpX",
"pXpXpXpXpXpXpXpXpXpXpXpXpXpXpXpXpXiXpXpXpXpXpXpXpXpXpXpXpXpXpXpXpXiXpXrX8X0X7X4.$.%.0.l.y.k.y.n.i.=.z.=.k.x.H.0XtXpXeXuXpXuXiXpX",
"pXpXpXpXpXpXpXpXpXpXpXpXpXpXpXpXpXpXpXuXuXpXpXpXuXpXpXuXuXpXuXpXpXpXpXpXtX0X7X2.@.*.t.l.l.y.l.u.r.e.S.b.b.x.<.2XtXeXpXpXpXpXpXiX",
"pXpXpXpXpXpXpXpXpXpXpXpXpXpXpXpXpXpXpXuXpXpXpXuXuXeXpXeXeXuXeXtXiXtXtX0X7X7X+Xu &.=.y.y.y.y.l.l.#.! M.z.c.P.:.<.*XtXpXtXpXpXiXiX",
"pXpXpXpXpXpXpXpXpXpXpXpXpXpXpXpXpXpXpXpXuXpXpXpXpXpXtXtX9XeX9X3XtX0X0X7X7X7X;XO.#.t.y.u.i.l.y.y.M.M.S.u r R.R.J.U.9XtXpXiXpXiXiX",
"pXpXpXpXpXpXpXpXpXpXpXpXpXpXpXpXpXtXrXtXtXtX0X6X~.U.U.U.P.c.c.K.K.4.x.b.`.}.`.Q #.e.i.a.p.p.y.y.y.S.l.+ . # f.x.x.5XtXtXrXiXpXiX",
"pXpXpXpXpXpXpXpXpXpXpXpXpXpXpXpXtXtX0X7X&X XJ.>.$.$.$.%.%.+.+.7.%.V C O.E #.! < ! e.r.a.y.y.p.y.#.l.0.X   o t L.4.+X0XtXpXrXiXiX",
"pXpXpXpXpXpXpXpXpXpXpXpXpXpXpXtX7X-X(.4.5.2.@.I b.z.z.M.M.M.M.a.S.m.m.m.e.r.e.L R ! r.p.p.y.p.m.B.l.'.$ O @ h.R.<.U.5XtXrXrXrXrX",
"pXpXpXpXpXpXpXpXpXpXpXpXpXpXpXtX/.k.&.@.t.n.Z.b.l.i.u.r.r.r.r.p.t.6.m.M.r.u.a.[ W )  .r.r.p.p.l.V.f V.}.l.'.R.0.x.L.&X0XtXrXrXiX",
"tXpXpXtXpXpXpXpXpXpXpXeXtXtX%X:.*.0.0.k.l.y.y.t.u.y.y.u.p.y.y.y.y.p.y.y.y.p.u.y.a W 7.0.t.r.q.l.0.f.k.l.p.m.u.r.t.z.}.7X0XqXrXpX",
"tXtXrXpXrXpXiXpXtXtXeXtX9XQ.h.N.0.q.t.y.y.y.y.y.y.y.y.p.y.y.y.l.y.y.l.p.y.y.y.y.7.! +.7.q.p.y.l.c.c.c.m.p.p.p.p.M.e.=.{.0XtXtX8X",
"pXpXtXiXpXpXpXpXeXpXtX9X~.s.s.N.y.y.y.y.y.y.l.y.y.y.y.l.y.y.y.p.y.y.l.y.l.y.y.y.l.7.E s 7.y.l.y.c.l.l.y.u.t.r.y.z.#.&.L.6XtXpXpX",
"pXtXpXpXiXpXpXpX8XtXtXY.:.c.T.0.m.y.l.y.q.y.y.p.y.l.y.y.y.y.y.l.y.y.y.y.y.y.y.y.m.q.+.s g #.7.0.0.l.y.y.r.u.r.y.y.O.y X.!.8XpXpX",
"pXpXpXpXpXpXpXtXtXtX*X:.:.R.E.0.m.l.l.y.y.q.l.l.y.y.y.l.y.l.p.q.l.y.y.y.y.y.y.y.y.y.7.+.W g W W 0.t.y.y.t.r.7.#.k.y $ M XXpXpXwX",
"pXpXpXpXpXpXpXtXtX+X<.4.c.c.y.m.y.q.y.y.y.y.y.y.y.y.y.y.y.y.y.l.y.y.y.y.p.l.y.y.y.y.l.q.+.W f E W W ! ! W E a u y X.1.!.eXpXpXuX",
"pXpXpXpXpXpXpXtX0XJ.$.x.B.7.' p.0.0.q.y.y.y.y.y.y.y.y.y.y.y.y.y.y.y.y.m.y.y.l.y.y.y.y.y.y.7.+.W E Y Y U a Q O.$.m (.tXtXtXuXpXpX",
"pXpXpXpXpXpXtXtXU.L.x.k.0.#.! W 7.7.q.y.l.l.q.q.y.y.l.p.l.p.y.l.l.p.y.y.y.l.y.p.l.y.0.y.M.m.q.! 7.! W ! #.k.R.{.+X9XtXpXpXpXpXuX",
"iXyXpXpXwXtXtX9X4.2.*.%.+.7.r.y.r.l.y.y.p.y.y.y.l.y.y.y.y.l.y.y.y.y.y.l.y.y.y.y.l.y.y.y.q.y.q.t.u.| ! E @.;X7X5XtXtXpXpXpXpXpXpX",
"iXiXpXpXeXpXtX*X>.%.*.#.7.e.y.a.y.u.y.l.l.y.l.y.p.y.y.y.y.p.y.l.y.y.p.y.y.y.l.p.y.y.y.q.y.y.y.y.r.e.#.I *.;X0X0XtXpXpXpXpXpXpXpX",
"iXiXpXpXtXtX0XU.$.$.%.0.t.y.u.z.y.y.y.y.y.y.y.p.l.y.y.l.y.y.y.p.y.y.l.y.l.y.l.y.y.y.l.y.y.y.y.y.e.i.! u 4.6X0XtXpXpXpXpXpXpXpXpX",
"iXiXpXpXtXtX6X<.C O.#.0.y.y.u.u.y.y.y.y.y.y.l.y.y.y.y.p.l.y.y.y.l.y.y.y.p.y.y.y.q.y.y.y.l.p.l.u.7.i.u u /.0XtXpXpXpXpXpXpXpXpXpX",
"iXiXpXpXtXtX>XO.C %.0.y.m.y.u.y.y.y.y.l.y.p.y.y.y.y.l.y.l.y.y.y.p.y.l.q.m.y.y.y.y.y.y.m.y.l.u.y.7.0.u ..*XtXtXpXpXpXpXiXpXpXpXpX",
"pXpXpXpXtX0X#Xm C 7.7.t.y.y.y.t.y.y.y.p.y.l.y.l.y.y.y.y.y.y.y.y.l.y.y.y.y.y.y.y.q.y.y.y.y.y.t.0.0.+.O.x.9XtXpXpXpXiXpXpXpXpXpXtX",
"iXiXpXrX0X0X#Xu +.+.0.y.l.m.l.l.l.p.y.y.y.y.y.y.y.y.y.y.p.y.y.l.y.y.y.y.y.y.y.p.y.y.y.y.y.q.7.+.%.f >.*X0XpXpXiXiXpXiXpXpXiXtXtX",
"iXpXpXtX7X0X[.t O.W 6.y.p.c.z.c.l.y.l.y.y.l.p.y.m.y.y.y.y.l.y.y.y.y.p.l.l.y.y.y.y.t.y.y.y.7.7.+.$.m L.0XtXpXpXpXpXiXpXpXpXpXtXpX",
"iXiXpXtX0X;XB.h W ' 7.q.l.c.c.k.u.y.y.y.y.q.t.8.M.m.t.q.y.l.u.y.e.l.u.t.e.u.u.e.u.u.r.t.t.e.T i ;.G.0XpXpXtXpXpXpXpXpXpXpXpXpXpX",
"pXiXpXtX@XP.l.a b ) { r.y.l.x.l.c.u.u.y.y.y.y.y.y.q.0.8.y.a.m.m.l.M.l.y.y.y.y.y.t.u.a.t.7.+.W $.XX8XpXpXpXeXuXpXpXpXpXpXpXpXpXpX",
"iXpXpX7X4.*.#.L T )  .{ r.y.l.y.u.p.p.p.y.y.y.y.7.7.7.' 6.r.q.t.u.q.l.0.7.#.0.M.t.m.M.y.+.W 0.U.0XpXtXpXpXpXpXpXpXpXpXpXpXpXpXpX",
"iXpXtX:X&.E ! L ( ( `  .| r.y.i.m.r.r.t.y.r.8.r.W W W R W W W W +.O.+.#.%.+.0.M.y.c.c.l.%.+.B.>XtXpXtXrXpXpXpXpXpXpXpXpXpXpXpXpX",
"pXtX0X@X&.Q [ L L ( ( (  .| | r.e.8.7. .8.[ 7.7.s T W T W T s Y C d C +.C C 0.c.c.g.g.q.0.g.[.7XtXrXeXrXpXpXpXpXpXpXpXpXpXuXpXpX",
"tXtXtX@X=.#.e.L L ( ( R ` | | | [ [ [ [ [ [ [ ) T W ` [ [ ) [ 7.7.0.%.C +.0.f.s.N.g.s.f.g.c.[.7XtXpXpXtXpXpXpXtXpXpXpXpXpXpXpXpX",
"pXpXtX:X>.&.7.! L R L R R | | =.[ [ ) [ W ) R R T [ [ 7.7.[ r.r.7.l.0.O.%.N.c.+.c.g.0.l.t.t.S.,XtXpXpXpXpXpXpXiXpXpXpXpXpXpXpXpX",
"uXpXtX9X<.$.*.+.Y R R R Q ! #.#.! ! ! ! ! W W W ' 7.r.r.7.[ [ [ Y e.e.f #.'.B.O.c.k.0.k.#.#.M.,X0XeXtXpXpXeXpXpXpXpXpXpXpXpXpXpX",
"uXpXpXuXeXU.1.i t u d O.f m u u Y a a f R 7.e.t.u.u.u.u.u.u.i.u.i.e.! Q C.,X;X*.t.k.t.7.#.! r.Z.qXtXpXtXpXpXpXwXpXpXpXpXpXpXpXpX",
"uXuXpXpXeX3X XU.U.{.].{.+X+X+X].`.n.#.Q #.y.A.b.t.y.t.t.i.y.y.t.A.u.! Q z.,X,X}.2.*.*.=.=.=.=.-.OXeXpXpXpXpXpXpXpXpXpXpXpXpXpXpX",
"uXuXuXpXuXpXtXtXtXtXtXeXtXtXeXtX7X}.*.O.$.=.k.k.v.b.v.b.v.n.n.n.i.=.Q Q n.,X7X,Xx.&.I u Q Q U % ,.1XtXpXeXpXpXpXpXpXpXpXpXuXpXpX",
"pXpXpXuXpXpXtXpXtXpXtXpXuXuXuXtX0X;XL.$...X.X.$.$.&.&.&.1.$.&.&.I @.-.5.(.7X0X7X:XI.;...o.@.@.o.D.1XpXpXtXiXpXpXpXpXpXpXpXpXpXpX",
"pXpXpXpXpXpXtXpXiXpXpXpXpXpXuXpXtX0X:X.XI.F.F.L.F.F.F.F.L.F.F.F.5._..X:X7X0XtXpXpXtX5X.X.X{.).&X5XrXtXpXpXpXpXpXpXpXpXpXpXpXpXpX",
"pXpXpXpXiXpXiXtXpXpXpXpXpXpXpXpXtX0XtX0X0XqX0X0XtXtXtX0XtXtXtX0X0X0X0XtXpXpXpXpXpXuXpXpXtXtX0X0XpXpXpXpXpXpXpXpXpXpXpXpXpXpXpXpX",
"rXpXrXtXrXtXrXpXrXiXiXpXpXpXpXuXtXtXtXtXtXtXtXtXtXtXtXtXtXtXtXtXtXtXtXpXpXuXuXpXyXuXpXpXpXpXtX0XtXpXtXpXpXpXpXpXpXpXpXpXuXpXpXpX",
"tXtXrXrXrXtXrXrXrXpXpXiXpXpXpXpXpXtXtXtXtXtXtXpXtXtXtXtXtXtXtXtXpXwXiXpXpXuXuXuXpXpXuXuXpXpXpXpXrXeXtXpXpXpXpXpXpXpXpXpXpXpXpXpX"
};
